<svg xmlns="http://www.w3.org/2000/svg" width="1000mm" height="1000mm" viewBox="0 0 1000 1000" style="max-width:1.6em;height:auto"><path id="path" style="opacity:1;vector-effect:none;fill:#fff;fill-opacity:1" d="M500 0C224 0 0 224 0 500s224 500 500 500 500-224 500-500S776 0 500 0M331 168h206c71 0 122 22 153 57 24 30 36 81 30 124-27 140-120 188-239 188h-60c-14 0-26 11-29 25 10-66-41 262-31 196H233c-11 0-19-9-17-20l86-545c2-14 14-25 29-25m411 199c11 6 21 14 29 23 27 30 32 72 22 123-24 123-105 165-209 165h-16c-13 0-24 9-26 22-8 45-14 90-22 135l-1 6c-2 12-12 21-25 21H387c-10 0-17-8-16-18l9-55 31-197c2-14 15-25 29-25h61c119 0 212-48 239-188 1-4 1-8 2-12"/></svg>