<svg version="1.0" xmlns="http://www.w3.org/2000/svg" width="533.333" height="533.333" viewBox="0 0 400 400"><path d="M228.6 2.2c-1.8 2.6-2.1 4.7-.5 3.1.6-.6 1.7-.9 2.5-.6 1 .4 1.1.9.1 2.3-.6 1.1-.8 2.2-.5 2.5.8.9 6.7 1.3 6.6.6 0-.4.1-.8.2-1.1.1-.3.3-1.7.4-3.2.2-2.4-.1-2.7-2-2.2s-2.2.2-1.7-1.5c.8-2.9-3.1-2.8-5.1.1zM266 1.1c0 2.2 2.2 4.9 4 4.9 1 0 2.3.7 2.8 1.6.7 1.2 1.1 1.3 1.7.5.8-1.3-2.3-5.3-3.5-4.6-.4.3-1-.4-1.3-1.5-.5-2.1-3.7-2.8-3.7-.9zM285 1c0 .5.7.7 1.5.4.8-.4 1.5-.8 1.5-1 0-.2-.7-.4-1.5-.4s-1.5.4-1.5 1zM295 1.2c0 2.3 1.6 3.9 3.3 3.2.9-.3 1.7-.2 1.7.3 0 .8 5.1 4.3 6.4 4.3.3 0 .6-.7.6-1.5 0-2 4.9-2 5.7.1.3.8 0 2.1-.7 2.7-1 .9-1.4.9-1.7 0-.4-1-3.2-.4-6.1 1.3-.2.1 0 1.3.4 2.8.6 2.4.8 2.5 2.7 1.1 1.8-1.3 2.2-1.2 3.3.3.8.9 1.4 2.7 1.4 3.9 0 1.3.5 2.3 1 2.3.6 0 1-.7 1-1.5s.5-1.5 1-1.5c1.7 0 1.1 2.6-1 4.5-1.8 1.6-2 1.6-3.6.1-1.1-1.2-2-1.4-2.7-.7-1.5 1.5-.1 4.2 1.9 3.4 1.3-.5 1.6-.3 1.1 1-.3.9-.2 1.9.3 2.2 1.1.7.3 5.4-1.1 6.9-.4.5-1.6.5-2.6.2-1.7-.7-1.7-.8 0-2.1 1.7-1.2 1.7-1.3 0-1.9-1-.4-1.9-.2-2.1.3-.2.6-.8.9-1.3.5-.5-.3-.9.6-.9 1.9 0 1.3-.8 3.1-1.8 4-2.3 2.1-3.9 2.2-2.2.2 1-1.2.9-1.5-.4-1.5-.9 0-1.9.7-2.2 1.5-.4.8-1.5 1.5-2.6 1.5s-1.8.5-1.5 1.2c.2.7 1.3 1.1 2.3 1 1.3-.3 1.6-.1.9.7-1.7 1.7-7.3 2-9.5.4-2.6-1.8-4-.9-4 2.7 0 2.4.3 2.8 1.8 2.3 1.3-.4 1.4-.3.6.6-1.3 1.4-4.4.4-4.4-1.5 0-.8-.5-1.4-1.1-1.4-.5 0-.8.4-.5.9.3.5 0 1.4-.7 2-1.1.8-1.3.6-1.3-1.1.1-2.5-2.1-3.4-4.4-1.7-1.1.8-1.2 1.2-.2 1.6 2.3.9 1.2 2.9-2 3.8-2.3.7-3.3 1.6-3.3 3 0 2.4 3.8 3.3 6.1 1.5 1.7-1.5 1.8-.1.1 2.1-.7.9-1.8 1.4-2.5 1.2-.6-.3-2.5.1-4.1.8-2.3 1-2.7 1.6-1.9 2.6.8 1 .6 1.3-.6 1.3-1.7 0-2 .9-1 3.4.9 2.3 2.4 2 2.4-.5 0-1.1.5-1.7 1-1.4.6.4.8 1.1.5 1.6-.4.5-.1.9.5.9 2.1 0 .4 2.3-1.8 2.5-3 .2-3.5 1-2.2 3.4.7 1.4.7 2.1 0 2.1-.5 0-1-.7-1-1.5 0-.9-.9-1.5-2.2-1.5-1.6 0-1.9-.3-1-.9 1-.6 1-1-.3-2.1-.8-.7-1.5-1.9-1.5-2.6 0-1.4-2.7-.8-7.8 1.8-2.2 1.1-2.2 1.2-.2 3 1.1 1 2.3 1.8 2.7 1.7 2.5-.4 5.3.3 5.3 1.2 0 .6-.8.9-1.8.7-1-.3-2.3.1-3 .9-1.6 1.6-3.2 1.7-3.2.1 0-.7-.6-.5-1.7.4-1 .9-2.8 1.9-4 2.2-1.3.4-2.3 1.2-2.3 1.7 0 1.2-3.6 1.2-6-.1-1.1-.6-2.1-.6-2.4-.1-.3.5-1.5.7-2.6.4-4.5-1.2 0 3.6 5.9 6.2 4.1 1.8 3.2 3.5-2.9 5.5-4.8 1.6-5 2.4-1.1 4.5 1.7.8 3.3 2 3.7 2.6.4.8.3.9-.4.5-1.3-.8-7.2 2-7.2 3.4 0 1.5 2.2 2.3 3 1 .5-.8 1.3-.5 2.6 1.2 2.6 3.1 4.4 3.3 4.5.5 0-1.5.2-1.7.6-.7.4 1 1 .3 1.8-2 .9-2.6 1.8-3.5 3.4-3.4 1.5 0 2.1-.5 2.1-2 .1-1.9.2-2 1.3-.4 1.3 1.7 3.2 1.9 5.3.5.6-.3 1.4-.4 1.7 0 1.1 1-.3 2.3-2.5 2.3-1.4 0-1.8.5-1.4 1.6.3.9.6 2 .6 2.6 0 .6.7.7 1.6.4 1.4-.5 1.5-.4.5.8-1 1.2-.8 1.6.8 2.1 2.5.8 2.7 2.1.5 2.9-1 .4-1.3.2-.9-.7.4-.6 0-.4-.8.5-.8 1-1.9 1.8-2.6 1.8-.6 0-1.1.5-1.1 1.1 0 .6-.7.9-1.5.5-1.1-.4-1.5.1-1.5 1.9 0 1.4-.5 2.5-1.1 2.5-.6 0-.9-.6-.6-1.4.4-1 0-1.2-1.4-.9-1.1.3-1.9 0-1.9-.6 0-.7-.4-.9-1-.6-1 .6-1.5 6.5-.6 6.5.3 0 1.6-.4 3-1 3-1.1 3.4.1 1 2.5-.9.8-1.3 2.2-1 3 .4 1.2.1 1.2-2.1.2-2.1-.9-2.7-.8-3.9.8-1.4 1.8-1.5 1.8-3.6-.5-1.3-1.4-2.3-3.1-2.3-4 0-.8-.9-1.5-2-1.6-3.7-.2-6.5-1.8-5.6-3.3.7-1.1 1.3-1 3.4.4 2.5 1.6 2.5 1.6 2-.4-.6-2.5-5.1-2.9-5.9-.6-.4.8-1.2 1.5-1.9 1.5-.8 0-1.1.8-.8 2 .3 1.1 0 2-.6 2-.5 0-.8.7-.5 1.5.4.8.1 2.2-.5 2.9-.8.9-.8 1.6-.2 2 .5.4 1.2.2 1.6-.4.4-.6 1.1-.8 1.6-.4.5.3.7 1 .4 1.5-.3.5.1.6.9.3.9-.3 1.6-.2 1.6.2 0 .5 1.1 1 2.5 1 2.6.2 3.3-1.4 1.5-3.2-.8-.8-.6-1.5.4-2.3 1.2-1 1.7-.7 3 1.8 2.4 4.6 2.1 5.2-2.5 4.7-3.9-.5-4.1-.4-3.7 1.9.3 1.3 0 2.6-.6 2.9-.7.3-.6.9.4 1.8.8.7 1.4 2.3 1.2 3.4-.5 3.5 2.7 3.8 5.6.7 2.5-2.7 3.6-7.2 1.9-8.4-.4-.3-.5-1.3-.2-2.1.8-2.1 4-1.2 6 1.8 1.4 2.1 1.4 2.4 0 2.4-.8 0-1.5.6-1.5 1.4 0 .7-.6 1.9-1.4 2.5-.8.7-1.2 2-.9 3 .3 1-.1 2.2-.8 2.6-.8.5-1 .4-.5-.3.4-.7.1-1.2-.8-1.2s-1.6.7-1.6 1.5.5 1.5 1 1.5c.6 0 1 .5 1 1.1 0 .6-.7.8-1.6.5-.8-.3-2.1 0-2.8.6-1 1-1 1.7.2 4.1 1.7 3.5 1 4.4-2.2 2.7-1.4-.7-3.2-1-4.1-.6-1.2.4-1.6.2-1.2-.8.3-.7 0-1.9-.6-2.5-1.9-1.9 2.4-1.3 4.5.6 1.8 1.6 1.8 1.6 1.2 0-.3-.9-1-1.7-1.6-1.7-.5 0-.6-.5-.3-1.1.7-1.1-3.9-5.9-5.7-5.9-.7 0-.3.7.8 1.6 1.8 1.5 1.8 1.5 0 1-1.5-.5-1.7-.4-.7.8.8 1 .9 2.1.1 4-1.3 3.4-1.3 3.9.1 3 .7-.4.9 0 .5 1.3-.4 1.1-.7 3.8-.8 5.9-.1 2.2-.7 4.9-1.5 6-1.2 1.9-1.2 2.2.1 2.7.9.4 1.8.2 2.1-.3.3-.4-.1-1-.7-1.3-1.7-.5.8-3.7 2.8-3.7.9 0 1.4-1.2 1.4-3.6 0-3.2.2-3.5 1.5-2.4 2.4 2 1.6 7.6-1.2 9.1-2.2 1.2-2.2 1.3-.6 3.2 1 1.1 1.2 1.7.6 1.3-.7-.4-2.2.2-3.5 1.3-1.2 1.2-2.7 2.1-3.4 2.1-.6 0-1.4.7-1.8 1.5-.3.8-1 1.5-1.6 1.5-.5 0-1-.7-1-1.5 0-1.6-1.2-2-2.3-.8-.4.3-.2 1.2.4 2 .9 1 .6 1.3-1.4 1.3-1.4 0-2.9-.5-3.3-1.2-.5-.8-1-.6-1.4.7-.4 1.1-1.8 2.2-3.1 2.5-1.9.5-2.3 1.2-2.1 3.4.3 2.5.1 2.6-1.8 1.6-1.1-.6-1.9-1.4-1.6-1.8.4-.6-1.6-.7-5.6-.3-.5.1-.8.6-.8 1.2 0 .5.5.7 1 .4 1.1-.7 2.6 2.2 1.6 3.2-.3.3-1.2.1-1.9-.6-1.1-.9-1.7-.7-2.8.6-1.2 1.4-1.2 1.5 0 .9.7-.5 1.6-.4 2 .2.8 1.3 3.6 1.9 3.8.8.2-1.3 2.6-2.6 4.9-2.6 2.6 0 4-2.9 2.2-4.3-.9-.6-.8-.7.5-.3 1 .3 2 0 2.3-.8.4-.9 2.1-1.2 6.1-1 3.2.2 6.3.6 7 .9.8.2 1.1 0 .8-.5-.3-.6-1.5-1-2.6-1-2.6 0-2.4-1.7.4-2.6 1.2-.4 3-1.6 4-2.7.9-1.1 1.7-1.5 1.7-.8s.5.9 1 .6c.6-.3 1 .3 1 1.4 0 3.1 1.1 5.1 2.7 5.1.9 0 1.3.6 1 1.4-.3.8-.3 1.7.1 2.1.4.4.8 1.1.8 1.6.1.5.2 1.3.3 1.8 0 .5.9.8 1.8.7 2.5-.2 2.7 2.7.2 4.2-2.5 1.6-5 0-4.6-3 .1-1.3-.5-2.2-1.5-2.3-1-.2-1.8 0-1.8.4 0 .5-.9 1.8-2 3.1-1.5 1.7-2 1.9-2 .7 0-.8-.3-2.2-.6-3.1-.4-1.1 0-1.6 1.2-1.6 2.4 0 .9-1.3-1.9-1.5-1.2-.2-2.1-.7-2-1.3.2-.6-.6-.9-1.6-.7-1 .2-2.4 0-3.1-.5-.7-.4-1.9-.6-2.5-.3-1.6.6-.7 4.3 1.1 4.3.7 0 1.8.9 2.4 2 .8 1.4.8 2 0 2-.6 0-.9.4-.6.8.2.4-.6.9-2 1-1.8.1-2.4-.3-2.4-1.8 0-1.1-.4-2-.8-2-1.5 0-3 2.3-2.5 3.7.5 1.2.1 1.4-1.5.9-3-1-3.7 1.2-1.3 3.8 1.2 1.2 2.1 2.6 2.1 3.2 0 .5-.4.2-.9-.5-.8-1.2-1.2-1-2.2 1.1-1.3 2.9-2.5 2.8-7.1-.6-3.5-2.5-3.5-3.4-.2-4.2 2.3-.6 2.4-.8 1-1.6-3-1.7-7.6-2.7-7.6-1.7 0 .5-.7.9-1.5.9s-1.5-.7-1.5-1.5.6-1.5 1.4-1.5c.8 0 1.7-1.1 2-2.5.7-2.8.1-4.5-1.5-4.5-.6 0-.7.4-.4 1 .4.6-.5 1-1.9 1-3 0-3.5 1.7-.6 2.2 1.4.2 1.7.7 1 1.7-.7 1.2-1.3 1.3-3.4.3-1.4-.6-2.6-1.8-2.6-2.7 0-1.1-1.2-1.5-5-1.5-4.1 0-5 .3-5 1.8 0 1.7 4.8 6.6 7.2 7.4 2 .7-.2 2.8-2.9 2.8-2.6 0-2.6 0-.7 2.1 1.4 1.6 1.5 2.3.7 2.6-.7.3-1.3 1.1-1.3 1.9 0 .9-.6 1.1-1.7.7-1.6-.6-1.7-.5-.2.9 1.6 1.6 6.4 1.9 8.7.5 1.7-1.1 1.5-3.7-.3-3.7-2.1 0-1.9-5 .3-6.6 2-1.6 4.2-1.8 4.2-.4 0 .5-.7 1-1.6 1-2.9 0-1.1 3.5 2.1 3.8 1.7.2 3.6.8 4.3 1.4 1.4 1.2 1.7 3.2.3 2.3-.5-.3-1.2-.1-1.6.5-.3.5-.1 1 .5 1s.8.5.4 1.1c-.4.8-1.3.4-2.4-1.1l-1.8-2.3-1.6 3.1c-1.7 3.4-2.2 5.6-.6 3.2.8-1.3 1-1.2 1 .3 0 1 .4 1.5 1 1.2.5-.3.7 0 .4.9-.3.8-1.8 1.6-3.2 1.8-2.7.3-2.9 2.3-.2 2.3 1.4 0 4.3 4.5 3.5 5.4-.3.2-1.4-.4-2.4-1.4-2-1.7-2-1.7-1.4 2.1.3 2.2 1 4.3 1.4 4.8 1.4 1.6 1 3.9-.5 3.3-1.8-.7-4.2 1.8-2.6 2.8.5.3 1-.1 1-1.1 0-3.5 2.7.6 2.8 4.3.1 2 .6 4.1 1.2 4.7.5.5 1 1.4 1 1.8 0 1.2-4.8 1-5.5-.2-1-1.7-4.5.8-4.5 3.3 0 1.2-.5 2.9-1.1 3.7-.8 1.1-.9.5-.4-2.3.4-2.3.2-3.7-.5-3.7-.9 0-1.4 1.4-1.1 3.3.1.4-.6.7-1.6.5-1-.2-1.9.4-2.1 1.6-.3 1.3 0 1.6.9 1.1.9-.6 1.1-.3.6.8-.7 1.7 2.9 5 4.5 4.1.4-.3.5.2.2 1-.3.9-1.1 1.6-1.8 1.6-.6 0-.3.5.7 1.1.9.5 1.7 1.6 1.7 2.4 0 .8.6 1.2 1.4.9.7-.3 1.6.2 2 1.2.5 1.2 1 1.4 1.9.5 1-.8 2.1-.7 4 .2 3.2 1.5 4.3 4.8 2.1 6.4-2 1.5-1 4.8 1.1 3.9 2.6-.9 1.6.8-1.5 2.9-3.7 2.5-6.6 2.6-6.4.2.1-1-.3-1.7-1-1.6-.6.1-2.4-.1-3.9-.6-3.6-1-5.6.7-3.7 3 1.5 1.8 5 2 5 .3 0-.9.3-.9 1.1-.1 1.2 1.2 1.5 8.6.4 10.3-.3.5-1.2.7-2 .3-.9-.3-1.5.1-1.5 1.1 0 .9-.4 1.6-1 1.6-.5 0-1 .7-1 1.5 0 2.1-1.2 1.9-3.9-.6-1.2-1.2-2.4-1.9-2.7-1.6-.9.9-1.3 4.7-.4 4.2.5-.3 1.1-.1 1.5.5.3.5 1.5 1 2.6 1 1 0 1.9.6 1.9 1.4 0 .9.8 1.2 2.4.9 1.7-.4 2.5 0 2.8 1.4.4 1.6 0 2-2.3 2-1.6 0-2.9-.6-2.9-1.3 0-.6-1.2-1.9-2.6-2.9-2.2-1.4-2.8-1.5-3.5-.4-1.5 2.3-1 3.9 1.2 3.9 1.6 0 1.9.4 1.4 2.2-.4 1.5-.3 1.9.3 1 .7-1 1.1-1 2.1.2 1.7 2 3.2 8.6 2 8.6-.5 0-.9 1.3-.9 2.9 0 2.6-.3 2.9-2.6 2.7-2.8-.3-4.9-2.9-3.8-4.7.3-.6 0-1.5-.7-2-1.7-1.1-2.9-1.1-2.8-.2.3 2-.2 2.6-1.1 1.3-.8-1.2-1-1-1 .8 0 1.9-.4 2.2-2 1.7-1.7-.5-2-.2-2 2.4 0 1.8-.8 3.5-2 4.4-1.1.8-1.7 1.7-1.3 2 .3.4.1.7-.6.7-.9 0-.9.5-.1 2 1 1.8 1.3 1.9 2.5.6.8-.8 1.5-2.1 1.5-2.8 0-2.3 1.6-3.9 3.3-3.3 1.3.6 1.3.9-.5 2.7-1.3 1.3-1.8 2.7-1.3 4.1 1.3 4.5 1.1 5.2-2 5.5-3.8.5-5.1 1.6-5.8 5-.4 1.9-1.5 3.1-3.7 3.9-1.7.7-3.4 2.1-3.7 3.3-.7 2.5-2.5 2.2-2.9-.5-.2-1-1-2.2-1.8-2.7-.9-.5-1.3-1.6-.9-2.6.4-1.3 0-1.1-1.6.5-1.2 1.3-2.9 2.3-3.9 2.4-1.3 0-1.1.3.5.9 1.3.6 2 1.5 1.7 2.3-.3.8.1 1.9.9 2.5 1.4 1.2 1.2 5.8-.3 6.7-.5.3-2 .1-3.4-.5-1.8-.6-2.6-.6-2.6.1 0 .5-1.2 2-2.7 3.3-4.6 4-.4 6.4 4.4 2.6 1.5-1.2 3.4-1.8 4.4-1.5 1.2.4 1.8.1 1.8-1.2.2-3.9.8-7.3 1.4-8 .4-.3.7.1.7 1s.7 1.7 1.6 1.7c.8 0 1.3.4.9.9-.3.5 0 1.3.6 1.6.5.4.8 1.3.5 2.1-.3.8 0 2.6.6 4 1 2 .9 2.7-.2 3.4-.8.5-1.8.6-2.3.3-.5-.3-.7.3-.5 1.3.3 1.6 1.3 1.9 6.3 1.9 5.5 0 6 .2 6.3 2.2.2 1.4-.2 2.3-.9 2.3s-2.4 1.1-3.9 2.5c-2.5 2.4-4.4 2.7-12 2.2-3.1-.2-3.5.1-3.8 2.5-.3 2.2.1 2.7 3 3.3 2.1.5 3.3.4 3.6-.4.7-2.1 2.2-1.1 4.2 2.8 1.7 3.4 1.8 4.1.5 5.1-1.2 1-1.5.9-1.5-.3 0-1.8-3.3-4-4.4-3-.3.3-.6.1-.6-.5 0-.7-.5-1.2-1.1-1.2-.5 0-.8.4-.5.8.2.4.1 1.4-.3 2.1-.7 1-1.2 1-2.9 0-1.3-.8-1.8-1.7-1.2-2.4.6-.8-.1-1-2.5-.7-1.9.2-4.3.1-5.2-.3-1-.5-2.1-.7-2.5-.7-.5.1-.7-.3-.5-1 .1-.6-.5-1.3-1.5-1.5-1.1-.3-1.8.5-2.3 2.7-.6 2.8-1 3.1-3.6 2.5-2.6-.6-2.9-.4-2.7 1.9.1 1.5.9 2.6 1.6 2.6 1.2 0 1.2.3.2 1.5-1.1 1.3-.7 1.5 2.9 1.5 3 0 5.2-.8 7.7-2.6 3.4-2.6 3.5-2.6 4.9-.8.8 1 1.5 2.2 1.5 2.6 0 .5 5.2.8 11.6.8 9.6 0 11.5-.2 10.5-1.3-.6-.8-.8-1.7-.4-2 .9-1 5.7.4 6.6 2 1.1 1.7 18.7 1.9 20.5.1.9-.9 1.5-.9 2.4 0 .9.9 24.6 1.2 100.5 1.2 93.5 0 99.3-.1 100.1-1.8.5-.9.8-2.3.6-3-.1-.7 0-.8.3-.2.2.5.9 1 1.4 1 .6 0 .7-.5.4-1.1-.4-.6.1-1.7 1.1-2.4 2.5-1.9 3.4-1.8 3.4 0 0 .8-.4 1.5-.8 1.5-.5 0-1.4 1.2-2 2.6-.7 1.4-1.7 2.2-2.2 1.9-.6-.3-1-.1-1 .4 0 .7 4.2 1.1 12 1.1h12V207.4c0-182.3-.1-192.8-1.7-194-1.2-.9-1.4-1.3-.5-1.4 2.4 0 .1-2-2.3-2-3.5 0-3.9-1.6-1.4-5 2.5-3.3 3.9-3.8 3.9-1.5 0 .8.5 1.5 1 1.5.6 0 1-1.1 1-2.3 0-2.3-.4-2.4-7-2.5-4-.1-7 .3-7 .8 0 .6-.7 1-1.5 1s-1.5-.5-1.5-1c0-.7-6.9-1-19.4-.9-15.6.1-19.6.4-20 1.5-.7 1.9-3.5 1.8-4.2-.1-.8-1.9-8.7-2.1-10.2-.2-.6.7-2.5 1.4-4.2 1.5-1.7.1-4 1.2-5.1 2.3-1.5 1.5-2.4 1.8-3.2 1-.6-.6-2.1-1.1-3.3-1.1-1.4 0-2.5-.8-2.9-2-.8-2.4-3.3-2.6-4.2-.5-.5 1.3-.8 1.3-2-.5-1.6-2.3-9.3-3-9.3-.8zm40 2.3c0 .8-.4 1.5-1 1.5-.5 0-.7-.7-.4-1.5.4-.8.8-1.5 1-1.5.2 0 .4.7.4 1.5zm36 0c0 .8.6 1.5 1.4 1.5 1.1 0 1.2.5.3 2.5-1.4 3-2.8 3.1-5.1.6-1.4-1.5-1.5-2.4-.6-4 1.2-2.4 4-2.8 4-.6zm-21 .4c0 1.2-2 2.5-2.7 1.8-.7-.7.6-2.7 1.8-2.7.5 0 .9.4.9.9zm32 1.5c0 .2-.7.6-1.5 1-.8.3-1.5.1-1.5-.4 0-.6.7-1 1.5-1s1.5.2 1.5.4zm7.3 3.3c-.3.7 0 1.3.7 1.3.6 0 .8.4.5 1-1.2 2-3.5 1.1-3.1-1.3.3-1.2.5-2.9.5-3.7.1-1.3.3-1.3 1-.1.5.8.7 2 .4 2.8zm-61-1.4c.3.7.3 2.5.2 4-.2 1.5.1 2.5.6 2.1.5-.3.9 0 .9.7 0 1 .3 1 1.2.1.7-.7 1.6-1.2 2-1.2 1.2 0 .9 3.5-.4 4.8-.9.9-.9 1.2 0 1.3 2.2.3 2.7.4 5.5 2.3 1.5 1 2.7 2.4 2.7 3.1 0 .6 1 1.7 2.3 2.3 1.2.6 1.6 1.1 1 1.1-.7.1-1.3 1-1.3 2.2 0 2.8-2.3 1.9-3-1.2-.3-1.3-1.1-2.4-1.8-2.3-2.8.2-3.2.5-3.2 1.9 0 .8-.4 1.5-.9 1.5-2.4 0-4.1-1.4-4.1-3.5 0-2.8-2.6-5.3-4.1-3.8-.7.7-.5 1.4.6 2.3 1.7 1.4 2 3 .5 3-.5 0-1-.7-1-1.5s-.4-1.5-1-1.5c-.5 0-1 .7-1 1.7 0 1.4-.2 1.4-2-.2-1.1-1-2-1.5-2-1.1 0 .4-.6.1-1.4-.6-1.3-1.1-1.3-1.5.1-2.5.8-.6 2.1-.9 2.9-.6 1.2.4 1.4 0 .8-2.3-.4-1.6-1.1-3.7-1.5-4.6-1.8-3.4-1-5.8 2.4-7.2 4.1-1.8 4.4-1.9 5-.3zM345 8.5c0 .8.4 1.5 1 1.5s.6.9.1 2.2c-1.1 2.9-7.2 3.3-7.9.5-.2-.9-.8-1.7-1.3-1.7s-.9-.5-.9-1c0-.6.9-1 2.1-1 1.5 0 1.9.5 1.5 1.5-.4 1.3-.2 1.4 1.4.5 1.1-.6 2-1.7 2-2.5s.5-1.5 1-1.5c.6 0 1 .7 1 1.5zm9.4 1c1.7 1.3 1.7 1.5.3 2.1-2.5.9-5.1 0-5.5-1.9-.4-2.1 2.5-2.2 5.2-.2zm4.1-.5c.3.5.1 1-.4 1-.6 0-1.1-.5-1.1-1 0-.6.2-1 .4-1 .3 0 .8.4 1.1 1zm6.2 7.1c0 1.6-.4 2.6-.8 2.3-.4-.2-1 0-1.3.5-.6 1-5.6 1.2-5.5.2.1-1.5 1.8-4.5 1.8-3.4.1.7.8 1.3 1.7 1.3 1 0 1.4-.6 1.1-1.4-.7-1.6-.2-2.3 1.6-2.3.8 0 1.4 1.2 1.4 2.8zM346.5 18c.3.5.1 1-.4 1-.6 0-1.1-.5-1.1-1 0-.6.2-1 .4-1 .3 0 .8.4 1.1 1zm1.5 10.4c-1.4 1.4-2.2.2-1.4-1.8.5-1.4.9-1.5 1.5-.4.4.7.4 1.7-.1 2.2zm-27.2 4.8c-.6 1.8-2.8 2.1-2.8.4 0-.9.7-1.6 1.6-1.6.9 0 1.4.5 1.2 1.2zm15.7 1.3c0 1-.5 2-1.1 2.2-1.3.4-2.7-2.4-1.8-3.8.9-1.5 2.9-.4 2.9 1.6zm27-1.5c.3.5.1 1-.4 1-.6 0-1.1-.5-1.1-1 0-.6.2-1 .4-1 .3 0 .8.4 1.1 1zM332 35c0 .5-.4 1-1 1-.5 0-1-.5-1-1 0-.6.5-1 1-1 .6 0 1 .4 1 1zm34 1c0 .5-.2 1-.4 1-.3 0-.8-.5-1.1-1-.3-.6-.1-1 .4-1 .6 0 1.1.4 1.1 1zm-36.6 1.8c-.6.4-1.4 1.4-1.7 2.2-.4 1-.6.8-.6-.8-.1-1.5.5-2.2 1.7-2.2 1 0 1.3.3.6.8zm36.6 3.4c0 .4-.7.8-1.5.8-1 0-1.5-1-1.5-2.8.1-2.6.1-2.6 1.5-.8.8 1.1 1.5 2.3 1.5 2.8zm-57.3-1c-.3.8-.6.5-.6-.6-.1-1.1.2-1.7.5-1.3.3.3.4 1.2.1 1.9zm25.3 1.2c0 2-.6 2.5-3.4 2.8-3.2.3-3.3.2-2.3-1.9.9-1.9 2.1-2.7 5-3.2.4 0 .7 1 .7 2.3zm-33 2.5c0 .5-.9.7-2 .4-1.1-.3-2-.7-2-.9 0-.2.9-.4 2-.4s2 .4 2 .9zm-.7 3.5c2.2-.8 3.1 1.4 1.3 3.2-1.5 1.4-1.7 1.4-2.2-.1-.6-1.4-.8-1.4-1.9.1-.9 1.2-1.4 1.4-1.9.5-.4-.6-.3-1.8.3-2.5s.7-1.7.3-2.2c-.4-.4 0-.3.9.4s2.3 1 3.2.6zm20.2 8.4c-.3.3-.5 0-.5-.6 0-1.6-4.2-1.5-5.9 0-1.1 1.1-1.3 1-.7-.5.3-1 .6-2.1.6-2.3 0-.2 1.1-.2 2.5.2 1.7.4 2.5.2 2.6-.7 0-.8.5-.3 1 1s.7 2.6.4 2.9zm-15.5-.2c0 .2-.9.4-2.1.4-1.1 0-1.8-.4-1.4-1 .5-.8 3.5-.3 3.5.6zm20.7 1.7c0 .8-.6 1.4-1.4 1.4-1.7 0-1.7-1.4 0-2 .6-.3 1.2-.6 1.3-.6 0-.1.1.5.1 1.2zm12.9 2.3c-.6 2.1-.4 2.5.8 2.1.9-.4 1.6-.2 1.6.3 0 1.4-2.2 1.2-4.2-.4-2.1-1.5-2.3-3.2-.5-3.9 2.4-1 2.9-.7 2.3 1.9zM284 61.2c0 1.2-.3 1.8-.7 1.4-1-1-1.1-4.6-.1-4 .4.3.8 1.5.8 2.6zm42 .9c0 .5-.4.9-1 .9-.5 0-1-.7-1-1.6 0-.8.5-1.2 1-.9.6.3 1 1 1 1.6zm8 1.9c-.6 1.1-.8 2.4-.6 2.9.3.5 0 1.1-.7 1.4-1.9.7-1.6-4.1.3-5.3 2.1-1.4 2.2-1.3 1 1zm-9 4.6c0 .8-.7 1.4-1.5 1.4-1 0-1.5-1-1.5-2.6 0-2.2.2-2.5 1.5-1.4.8.7 1.5 1.9 1.5 2.6zm-9.4-.1c-.2.6.9 1.9 2.4 2.9 2.4 1.4 2.8 2.1 2.1 3.9-1.2 3.3-3 2.7-5.5-1.8-1.1-2.2-2.4-4.1-2.8-4.3-1.6-.7.5-2.9 2.3-2.5 1.1.3 1.8 1.1 1.5 1.8zm-36.9 7.4c.2 3.4 0 4-1.7 3.8-2.2-.1-2.1-.1-2.5-3.5-.2-1.9 1.6-4.1 3.5-4.2.3 0 .6 1.8.7 3.9zm23.8-1.9c.3.5-.1 1-.9 1-.9 0-1.6-.5-1.6-1 0-.6.4-1 .9-1 .6 0 1.3.4 1.6 1zm-4.1 3.6c.7 1.7-.8 6.9-1.9 6.7-1.4-.2-1.9-2.3-.6-2.3.6 0 1.1-.9 1.1-2 0-1.4-.7-2-2.4-2-1.9 0-2.3-.4-1.9-1.9.4-1.7.9-1.8 2.8-.9 1.3.6 2.6 1.6 2.9 2.4zM273 75.4c0 .3-.4.8-1 1.1-.5.3-1 .1-1-.4 0-.6.5-1.1 1-1.1.6 0 1 .2 1 .4zm11 1.6c0 .5-.4 1-1 1-.5 0-1-.5-1-1 0-.6.5-1 1-1 .6 0 1 .4 1 1zm17-.6c0 .3-.4.8-1 1.1-.5.3-1 .1-1-.4 0-.6.5-1.1 1-1.1.6 0 1 .2 1 .4zm7 .6c0 .5-.5 1-1.1 1-.5 0-.7-.5-.4-1 .3-.6.8-1 1.1-1 .2 0 .4.4.4 1zm-5.4 2.7c-1 1-1.9-.5-1-1.8.6-1.1.8-1.1 1.2 0 .2.7.1 1.5-.2 1.8zm-40 2.5c.8-.2 1.4.2 1.4.8 0 .5.7 1 1.5 1 2 0 1.8 1-.6 3.9-1.7 2.1-2.1 2.2-3.7.9-.9-.9-2.3-1.3-2.9-1.1-.7.3-1.3-.3-1.3-1.2 0-1.1.7-1.6 2.3-1.5 3.5.3 4.4-.1 2.2-1-1.1-.5-3.7-.9-5.8-.9-2.4-.1-3.6-.5-3.2-1.2.4-.6 1.3-.8 2-.5.8.3 1.9-.2 2.6-1 1.2-1.4 1.4-1.4 2.7.3.7 1 2 1.7 2.8 1.5zm51.8-1.6c.9.8 1.6 1.7 1.6 1.9 0 1-2.7 6.3-4.7 9.4l-2.3 3.4-1.1-3.2c-.6-1.8-1.5-2.8-2.2-2.4-.7.4-.8 0-.4-1.1.4-1 .7-2.1.7-2.6 0-.4 1-1.1 2.3-1.4l2.2-.7-2.2-.9c-1.3-.5-2.3-1.2-2.3-1.5 0-.7 3.9-2.3 5.7-2.4.6-.1 1.9.6 2.7 1.5zM277 81.8c0 .4-.6 1.4-1.2 2.1-.8.9-.8 1.1-.2.8.7-.4 1.4 0 1.8.8.4 1 0 1.4-1.4 1.2-2.9-.5-3.3-1.3-1.8-3.6 1.3-2.1 2.8-2.8 2.8-1.3zm-6.5 3.2c.3.5.1 1-.4 1-.6 0-1.1-.5-1.1-1 0-.6.2-1 .4-1 .3 0 .8.4 1.1 1zm58.5 2.9c0 1.5 1 2 4.8 2.6 14.5 2.1 29.1 9.1 39.7 19 5.8 5.4 9.2 10.9 10.1 16.5.3 1.9 1.2 5.3 2 7.4 1.4 3.7 2.8 15.7 2.7 23.6-.1 6.3-11.4 39.5-15.4 45.2-1.1 1.4-1.9 3.3-1.9 4.2 0 1.7-5.8 13.7-7.1 14.6-.3.3-1.4 2.1-2.4 4s-3 5-4.4 6.8c-1.4 1.7-3.8 4.7-5.2 6.5-1.4 1.7-3.4 4.7-4.3 6.4-.9 1.8-2 3.3-2.4 3.3-.4 0-2.5 2.3-4.7 5.1-2.1 2.8-5.6 6.2-7.7 7.5-2.6 1.7-4.1 3.4-4.5 5.5-.4 2.3-1.2 3.1-3.4 3.6-2 .4-3.6 1.8-5.4 4.9-1.7 2.9-4 5.1-6.8 6.5-5.1 2.6-7.8 4.9-7.1 6 .8 1.4-2.3 4-4.3 3.7-1-.2-1.9.4-2.1 1.5-.6 3-13.1 15.5-16.3 16.2-1.5.4-3.9 1.9-5.2 3.4-4.3 5.2-7.4 6.5-14.3 6.3-4.9-.2-7.7.3-12.6 2.4-5.6 2.4-6.7 2.5-10.6 1.5-6.2-1.6-8.6-1.4-15.8 1.5-7.7 3.1-10.4 2.9-12.3-1-1.2-2.5-1.1-3.5 1.2-9.5 1.4-3.6 2.8-7.6 3.2-8.9.4-1.2 1-2 1.4-1.8.4.3.7-1.6.7-4.2s.7-6.3 1.6-8.2c.9-1.9 1.9-4.4 2.2-5.4.7-1.9.7-1.9 2.1.1 1.5 2.1 8 3.9 7 1.9-.3-.6-.8-1.9-1.1-2.8-.4-1-1-1.8-1.5-1.8s-.9-.9-.9-2 .4-2 1-2c1 0 4.4-5.9 3.8-6.6-.2-.2-1.4-.1-2.6.3-1.7.4-2 .9-1.2 2.3 1.4 2.6 1.3 2.8-1.5 2.6-2.2-.1-2.5-.4-2-2.8.4-1.5.8-4.1 1-5.9.5-3.4 3-7.9 4.5-7.9.5 0 .7.7.4 1.5-.4 1.1.1 1.5 1.7 1.5 1.8 0 2-.3 1.1-1.2-1.9-1.9-1.4-2.9 1.3-2.2 3.6.9 5.4-.1 4.8-2.5-.3-1.2-1.1-2.1-1.7-2.1-2 0-4-4.8-3.9-9.3.2-6.8.4-7.7 1.4-7.7.5 0 .9-.6.7-1.3-.1-.6.4-2.3 1.1-3.6.7-1.3 1.1-3.4.8-4.7-.2-1.3 0-2.1.4-1.8.5.3.9-.6.9-1.9 0-2.1.4-2.4 3-2.3 1.7.1 3.5.7 3.9 1.5.7 1 1.3 1.1 3 .2 1.7-1 1.9-1.6 1.1-3.1-.6-1.1-1.6-2.3-2.3-2.7-2.6-1.7-3.8-4.2-3.1-6.7.6-2.5 2.9-3.6 3.6-1.6.2.6.9.6 1.8 0 1.3-.8 1.2-1.1-.5-2.4-2-1.4-2-1.5.3-4.5 1.2-1.7 2.2-3.5 2.2-4.2 0-.8 1.2-1 3.6-.6l3.6.6-.4-3.4c-.3-2.4 0-3.5.9-3.5.7 0 1.7-1.8 2.3-4 .6-2.2 2-4.9 3.1-5.9 2.1-2 1.8-4.1-.5-4.1-.8 0-1.6 1.7-2 4-.7 4.7-1.6 5-3.3 1.3-1.1-2.2-1-3.1.8-5.9 1.1-1.9 1.7-3.9 1.3-4.6-.5-.8-1-.6-1.5.8-.5 1.3-.8 1.4-.8.4 0-.8.3-2.1.8-2.9.8-1.2 1.2-1.2 2.5-.2 1.4 1.2 1.6 1 1.6-1.2 0-1.3.7-3 1.5-3.7.8-.7 1.2-1.6.9-2.1-.3-.5 0-.9.5-.9.6 0 1.1-.8 1.1-1.7 0-1.3.3-1.4 1.1-.6.6.6 1.8.9 2.5.6.8-.3 1.4 0 1.4.6s.7 1.1 1.5 1.1c2.4 0 1.7-2-1-3-2.6-1-3.2-2.4-1.6-3.5.6-.3 1.4.2 1.9 1.1 1.3 2.3 3.2.8 3.2-2.5 0-1.8-.5-2.8-1.5-2.8-.8 0-1.5.6-1.5 1.4 0 .7-.4 1.3-1 1.3-.5 0-1-.9-1-1.9 0-1.1.5-2.3 1-2.6.6-.3 1-1.5 1-2.6 0-1 .7-1.9 1.5-1.9s1.5.7 1.5 1.5c0 1.7 1.6 2 2.5.5.3-.6-.1-1.3-.9-1.6-2.4-.9-2-2.9 1.5-7.6 2.1-3 2.8-4.9 2.4-6.6-.4-1.5-.2-2.1.5-1.7.5.3 1-.1 1-.9 0-2.4 1.4-1.9 3.9 1.4 2.3 3.1 4.6 3.2 3.6.1-.3-.9.2-2.6 1-3.7 2-2.6 1.9-6.1-.2-7.3-1.4-.7-1.5-1.2-.5-2.3.6-.8.9-1.7.6-2-.3-.3.6-2.8 2-5.5 2.3-4.6 2.7-4.9 5.5-4.5 4.5.6 3.9-1.6-.9-3.6-4.5-1.9-4.9-2.7-2-4.2 1.4-.7 2-.7 2 0 0 .5.5 1 1.1 1 .5 0 .8-.3.6-.8-.7-1.1 3-7.4 3.8-6.3.3.6.1 1.9-.5 3-.8 1.6-.6 2.2 1 3.1 1.1.6 2.4.9 2.8.6.5-.3 2.5-.1 4.5.4 3.5.7 3.7.7 3.7-1.7 0-1.3 1-3.3 2.3-4.3 1.2-1.1 3.6-3 5.2-4.4 3.6-3.1 4.5-3.2 4.5-.7zm-59.7.5c.4 1 0 1.2-1.4.9-1-.3-1.6-.9-1.3-1.4.8-1.3 2.1-1.1 2.7.5zm21-.7c.9.9-5.2 4.5-6.4 3.8-1.7-1.1-.9-3.4 1.4-3.8 3.7-.7 4.3-.7 5 0zm-45.9 2.8c-1.5 2.3-6.3 3.8-4.9 1.5.4-.6 1-.8 1.5-.5.4.3 1-.4 1.3-1.5.3-1.1 1.2-2 2.1-2 1.5 0 1.5.2 0 2.5zm15.4 3.3c.2.7-.6 1.2-2.2 1.2-1.3 0-2.8.4-3.1 1-.3.5-1.3 1-2.1 1s-1.2-.5-.9-1c.4-.6-1.2-1-4.2-1h-4.8l3-1.6c1.6-.8 4-1.3 5.3-1.1 1.2.2 2.5.1 2.7-.3.7-1.1 5.8.4 6.3 1.8zm11.8 3.8c-1 .7-1.4 1.8-1 2.9.5 1.3.2 1.6-1.2 1.3-1.1-.2-2-1.3-2.2-2.6-.3-1.7.2-2.2 2-2.3 1.3 0 1.7-.3 1-.6-.6-.2-.9-.9-.6-1.4.3-.6 1.2-.5 2.1.2 1.3 1.2 1.3 1.4-.1 2.5zm-6.5-.6c.5 0 .9.7.9 1.6 0 1.3-.3 1.4-1.3.5-.8-.6-1.6-.8-1.9-.5-.3.2-.8-.3-1.2-1.2-.5-1.2-.2-1.5 1-1 .8.3 2 .6 2.5.6zm9.9 6c0 .5-.2 1-.4 1-.3 0-.8-.5-1.1-1-.3-.6-.1-1 .4-1 .6 0 1.1.4 1.1 1zm-12.5 21c.3.5.1 1-.4 1-.6 0-1.1-.5-1.1-1 0-.6.2-1 .4-1 .3 0 .8.4 1.1 1zm9.3 1.8c.2.7-.2 1-1.2.6-.9-.3-1.6-1.1-1.6-1.6 0-1.3 2.3-.5 2.8 1zm-17.1 1.4c-.3.8-.6.5-.6-.6-.1-1.1.2-1.7.5-1.3.3.3.4 1.2.1 1.9zm-8 .4c-.3.3-1.2.4-1.9.1-.8-.3-.5-.6.6-.6 1.1-.1 1.7.2 1.3.5zm1.8 2.4c.7 1.2-.2 1.2-3 0-1.9-.8-1.9-.9.2-.9 1.2-.1 2.5.3 2.8.9zm-1.5 3c0 .5-.4 1-1 1-.5 0-1-.5-1-1 0-.6.5-1 1-1 .6 0 1 .4 1 1zm8.3 9.3c-2.2 4.5-3.4 4.7-3.1.7.2-2 .7-2.9 1.5-2.6.8.4 1.3-.3 1.3-1.6 0-1.6.3-1.9 1.1-1.1.7.7.5 2.1-.8 4.6zm-12.6 1.9c-.3.8-.6.5-.6-.6-.1-1.1.2-1.7.5-1.3.3.3.4 1.2.1 1.9zm-.7 4c0 .5-.8.8-1.7.6-1-.2-2.8.8-4.1 2.2-1.6 1.9-2 2-1.6.6 1.2-3.2 4.8-6.3 6.2-5.3.6.5 1.2 1.4 1.2 1.9zm4.5.9c.4.6 1.3.8 2.1.5.8-.3 1.4-.2 1.4.3 0 1.5-1.3 2.1-2.6 1-.8-.6-2.1-.9-2.9-.5-1.5.5-2.1-.5-.8-1.7.9-1 2.1-.8 2.8.4zm-5 4.3c1.6 1.1 1.7 1.7.7 2.9s-1 1.6.3 2.1 2-.5 1.6-2.7c0-.4.4-.7.9-.7.6 0 1 .4 1 1 0 .5.8.7 1.8.3 1.4-.5 1.5-.3.5.8-2 2.1-1.6 4.1.7 3.4 2.9-.9 2.5 1.4-.5 2.5-1.4.5-2.5 1.7-2.6 2.7 0 1.6-.1 1.5-.8-.2-.5-1.1-.4-2.9.1-4 .9-1.6.8-1.8-.3-.8-1.8 1.8-3.9 1.6-3.9-.2 0-.8-.6-1.5-1.3-1.5-.9 0-1.3-1.2-1.3-3.5.1-3.9.4-4.1 3.1-2.1zm-6.7 1.8c-.3.7-1.3 1.5-2.4 1.7-1.6.3-1.7.1-.5-1.3 1.6-1.9 3.4-2.1 2.9-.4zm19.2.7c0 .6-.4 1.3-1 1.6-.5.3-1-.1-1-.9 0-.9.5-1.6 1-1.6.6 0 1 .4 1 .9zm11 .1c0 .5-.7 1-1.5 1s-1.5-.5-1.5-1c0-.6.7-1 1.5-1s1.5.4 1.5 1zm-27.5 6c.8 1.3-1.5 1.3-3.5 0-1.2-.8-1.1-1 .7-1 1.2 0 2.5.4 2.8 1zm-6.8 4.2c-.3.8-.6.5-.6-.6-.1-1.1.2-1.7.5-1.3.3.3.4 1.2.1 1.9zm10.6.8c.4 1.8.2 2-1.6 1.4-2.8-.8-3-1.1-2.2-2.3 1-1.8 3.2-1.2 3.8.9zm-3.3 3c0 .5-.4 1-1 1-.5 0-1-.5-1-1 0-.6.5-1 1-1 .6 0 1 .4 1 1zm4 1c0 .5-.4 1-1 1-.5 0-1-.5-1-1 0-.6.5-1 1-1 .6 0 1 .4 1 1zm-3.3 3.5c.8.9 1.2 2.2.9 3-.6 1.7-2.6 2-2.6.4 0-.6-.6-.9-1.4-.6-1.1.4-1.1.1-.2-1.9 1.3-2.8 1.3-2.8 3.3-.9zm11.3 0c1 1.2 1 1.5-.3 1.5-.8 0-1.7-.7-2.1-1.5-.3-.8-.2-1.5.3-1.5s1.4.7 2.1 1.5zm5.6 4.6c.4.8.9.7 1.5-.2.4-.7 1.1-1.1 1.4-.8.3.4 0 1.1-.7 1.7-.9.7-1.9.6-3.2-.4-1.1-.8-1.5-1.4-.9-1.4.7 0 1.5.5 1.9 1.1zm-18.4 2.5c-2.3 1.8-5.2 1.7-5.2-.1 0-1 1-1.4 3.5-1.3 3.1.1 3.2.3 1.7 1.4zm-4.4 6.9c0 2.7-.8 3.1-2.5 1.4-.9-.9-.8-1.5 0-2.5 1.8-2 2.5-1.7 2.5 1.1zm6.9 1.2c-.3.3-1.1.2-1.7-.2-.9-.6-.9-1 .1-1.6 1.4-.8 2.7.7 1.6 1.8zm19.7.4c-.6 1.1-2.4.2-2.4-1.1 0-.5.7-.7 1.5-.4.8.4 1.2 1 .9 1.5zm-44.9 1.9c.3.5.1 1-.4 1-.6 0-1.1-.5-1.1-1 0-.6.2-1 .4-1 .3 0 .8.4 1.1 1zm29.5 0c0 .5-.5 1-1.1 1-.5 0-.8.4-.5.9.3.5-.1 1.2-1 1.5-2.1.8-2.4.8-2.4-.5 0-.5.5-.7 1.2-.3.7.5.9.2.5-.9-.3-.9-.1-1.8.6-2.1 2-.8 2.7-.7 2.7.4zm14.5 2c.3.5.3 1.5-.1 2.1-.6 1.1-2.3-.6-2.4-2.4 0-1 1.8-.9 2.5.3zm-10.8 1.6c-.3.3-1.2.4-1.9.1-.8-.3-.5-.6.6-.6 1.1-.1 1.7.2 1.3.5zm-34.4 7.2c-.5 2-3.3 2.6-3.3.7 0-1.5 1-2.5 2.6-2.5.7 0 1 .8.7 1.8zm14.6.8c.6-.4 1.1-.2 1.1.3 0 .6-.8 1.1-1.8 1.1s-2.3.5-3 1.2c-1.5 1.5-1.5.3-.1-2.4.8-1.5 1.3-1.7 1.9-.8.4.7 1.3.9 1.9.6zm-12.8 2.7c-.8.8-1.1.7-1.1-.4 0-.9.3-1.9.7-2.3.4-.4.9-.2 1.1.4.3.7-.1 1.7-.7 2.3zm7.4-1.3c-.4.6 0 2.2.9 3.5 1.5 2.2 1.4 2.4-1.4 3.4-1.7.5-3 1.5-3 2.2 0 .7-.8.9-2.2.5-4.4-1.3-6.3-1.8-7.5-1.8-.6-.1-.9-.7-.6-1.5.3-.7.8-1.1 1.2-.8.4.2 2 .6 3.6.9 3.2.6 4.5-.6 4.5-4.1 0-2.1 1.2-3.1 3.8-3.2.7-.1 1 .4.7.9zm-13.6 3.6c-1.3 1.6-5 1.5-5.6-.2-.2-.6 1.2-1.1 3.3-1.2 3.1-.1 3.4.1 2.3 1.4zm-20.9 3.8c0 1.8-1.7 2.9-3 2.1-.8-.5-.7-1.1.1-2.1 1.5-1.8 2.9-1.8 2.9 0zm45.1 1.8c1.1 2.1 1.1 2.2-.4.9-1-.7-1.7-1.7-1.7-2.2 0-1.5.9-1 2.1 1.3zm-24.9-.2c.6 0 .8.7.4 1.5-.3.8 0 1.5.7 1.5s1.8.4 2.6.9c1.2.8 1.2 1.2.2 2.4-1 1.3-.9 1.7.5 2.5 1.5.9 1.6 1.3.5 2.6-1.6 1.9-2.9 2.1-2.8.3.1-3.2-.4-4.8-1.5-4.5-2.6.4-5.6-1.3-5.3-3 .2-.9.4-2.5.4-3.6.1-1.2.6-1.6 1.7-1.2.9.3 2 .6 2.6.6zm-21.5 7c.6 0 1.1 1 1.1 2.3v2.4l-3.1-2.9c-1.8-1.5-3.6-2.8-4.2-2.8-.5 0-.3-.5.5-1 1-.6 2-.4 3.1.6.8.7 2 1.4 2.6 1.4zm37.9 2.7c-1 1-1.9-.5-1-1.8.6-1.1.8-1.1 1.2 0 .2.7.1 1.5-.2 1.8zm-30.2-.1c.5 1.2 1.4 1.5 3.6 1.1 1.6-.4 3.2-.2 3.6.4.9 1.5.3 1.8-4.4 2.3-3.4.5-4 .3-3.6-.9.5-1.1-.1-1.5-2-1.5-1.4 0-2.6-.4-2.6-1 0-.5.7-.7 1.5-.4.8.4 1.5.1 1.5-.5 0-1.7 1.7-1.3 2.4.5zm26.6.9c.7.9.8 1.5.2 1.5-.5 0-1.2-.7-1.6-1.5-.3-.8-.4-1.5-.2-1.5s.9.7 1.6 1.5zm-13.3 2.7c-.3.8-.6.5-.6-.6-.1-1.1.2-1.7.5-1.3.3.3.4 1.2.1 1.9zm20.3.8c0 1.1-.2 2-.4 2s-.6-.9-.9-2c-.3-1.1-.1-2 .4-2s.9.9.9 2zm-25.9 1.6c1.1 1.4 1 1.5-1.1 1.2-1.3-.1-2.5-.9-2.8-1.6-.5-1.7 2.3-1.5 3.9.4zm-10.1.4c0 .5-.5 1-1.1 1-.5 0-.7-.5-.4-1 .3-.6.8-1 1.1-1 .2 0 .4.4.4 1zm20 0c0 .5-.5 1-1.1 1-.5 0-.7-.5-.4-1 .3-.6.8-1 1.1-1 .2 0 .4.4.4 1zm-11.4 3.5c-.3.8-.1 1.5.4 1.5.6 0 1 .5 1 1.1 0 .8-.5.8-1.5-.1-1.7-1.5-2-4-.4-4 .6 0 .9.7.5 1.5zm-10.9.1c-.3.3-1.2.4-1.9.1-.8-.3-.5-.6.6-.6 1.1-.1 1.7.2 1.3.5zm38.3 2.5c0 .6-.8 1.8-1.7 2.7-1.6 1.6-1.6 1.6-1-.1.4-1 .2-1.7-.6-1.7-.7 0-2.1-.8-3.2-1.7-1.6-1.2-1.6-1.4-.3-1 1 .3 2 .2 2.3-.3.8-1.2 4.5.6 4.5 2.1zm-32 1.4c0 .8-.5 1.5-1.1 1.5-.6 0-.9.9-.6 2 .3 1.1.1 2-.4 2-.8 0-.7-4.7 0-6.8.4-.9 2.1.1 2.1 1.3zm8.5-.5c.3.5.1 1-.4 1-.6 0-1.1-.5-1.1-1 0-.6.2-1 .4-1 .3 0 .8.4 1.1 1zm14.5 2.5c0 .3-.9.1-2-.5s-1.8-1.5-1.5-2.1c.6-.9 3.5 1.2 3.5 2.6zm13.4-1c-.6 1.6-2.4 2.1-2.4.7 0-1.1 1.1-2.2 2.1-2.2.5 0 .6.7.3 1.5zM189 241c0 .5-.2 1-.4 1-.3 0-.8-.5-1.1-1-.3-.6-.1-1 .4-1 .6 0 1.1.4 1.1 1zm31 1.6c0 .8-.4 1.2-1 .9-.5-.3-1-1-1-1.6 0-.5.5-.9 1-.9.6 0 1 .7 1 1.6zm-2.5 2.4c.4 1.6 1.1 3 1.6 3s.9.7.9 1.5.5 1.4 1.1 1.2c.6-.1 1.3.3 1.6.9.5 1.4-2.9 1.4-4.3 0-1.8-1.9-3.4-5.3-3.4-7.5 0-3.2 1.8-2.5 2.5.9zm-31-.1c.3.5.1 1.2-.5 1.6-.5.3-1-.1-1-.9 0-1.8.6-2.1 1.5-.7zm-8.3 7.1c-2.5 4.4-4.5 4.7-2.5.5.9-1.9 2.2-3.5 2.9-3.5 1 0 .8.8-.4 3zm55.8-1c0 .5-.4 1-1 1-.5 0-1-.5-1-1 0-.6.5-1 1-1 .6 0 1 .4 1 1zm-3 5c0 3.9-1.5 3.9-1.6 0-.1-1.7.3-3 .7-3 .5 0 .9 1.3.9 3zm-55 2c0 .5-.2 1-.4 1-.3 0-.8-.5-1.1-1-.3-.6-.1-1 .4-1 .6 0 1.1.4 1.1 1zm39.3 1.9c.3 1.3-.1 2.1-1.4 2.4-2 .5-2.3-.1-1.3-2.7.8-2.2 2.1-2 2.7.3zm-7.1 8.8c-.5 2.4-.6 2.5-1.2.8-.8-2.1-.4-3.5.9-3.5.5 0 .6 1.2.3 2.7zm-17.1-.5c.1.7.1 1.9 0 2.6-.1.8.7 1.1 2.3.8 1.5-.3 2.6 0 2.6.5 0 1.4-4.6 1.1-5.7-.4-1.9-2.4-2.3-4.7-.8-4.7.8 0 1.6.6 1.6 1.2zm9.5 12.4c-.3.9-.6 1.9-.6 2.4 0 .4-1.1.7-2.5.7-2.6 0-3.3-1.1-1.5-2.2.6-.4.8-1.1.5-1.6-.4-.5.6-.9 2-.9 2.1 0 2.6.4 2.1 1.6zm-14.6 5.9c0 1.3-.5 2.5-1.2 2.7-.6.2-1.2 1.7-1.3 3.4-.1 1.6-.6 3.8-1.2 4.9l-1.2 2-1.5-2c-2.1-2.9-2.7-7.3-1.3-9.5 1.2-2.1 4.7-2.8 4.7-1 0 .5.5 1 1 1 .6 0 .8-1.1.4-2.6-.5-1.9-.4-2.5.5-2 .6.4 1.1 1.8 1.1 3.1zm27.3 1.6c1.5 1 0 3.9-1.9 3.9-1.2 0-1.5-.7-1.2-2.4.4-1.9.1-2.2-1.4-1.8-1 .2-1.8 0-1.8-.6 0-1.4 4.4-2 4.9-.7.2.5.8 1.3 1.4 1.6zm3.7-.4c0 .5-.5 1.5-1 2.3-.8 1.2-1 1.1-1-.8 0-1.2.5-2.2 1-2.2.6 0 1 .3 1 .7zm-39.7 11.4c-.6.6-1.9.9-2.9.7-1.7-.3-1.7-.4.1-2.1 1.2-1.3 2.1-1.5 2.8-.8.8.8.8 1.4 0 2.2zm6.1 4.8c.3.5-.1 1.1-.9 1.5-.8.3-1.7 0-2.1-.6-.4-.7-.3-.8.4-.4s1.2.2 1.2-.3c0-1.3.7-1.4 1.4-.2zm13.4 1.6c1.6 3.6 1.5 4.5-.6 4.5-2.5 0-4.9-5-3-6.1 2-1.3 2.4-1.1 3.6 1.6zm-7.1 1.7c-.3.7-.5.2-.5-1.2s.2-1.9.5-1.3c.2.7.2 1.9 0 2.5zm-7.1 3.2c1.2 1.3 1.1 1.6-.7 2.1-1.1.4-2.3.4-2.6.1-.4-.3-.1-.6.7-.6 1 0 1-.3 0-1.5-1.7-2 .6-2.1 2.6-.1zm9.1 4.2c.3.8.1 2-.6 2.7-1.5 1.5-1.4 2.7.4 2.7.8 0 1.5.5 1.5 1 0 .7-.8.6-2.2-.1-1.3-.7-2.5-1.1-2.8-.9-.3.2-.6-.4-.8-1.3-.2-.9.1-1.7.7-1.7s1.1-.9 1.1-2c0-2.4 1.8-2.7 2.7-.4zm-8.3 3c.7 1.8-.1 5.4-1.2 5.4-.4 0-1.3-.9-2-2.1-1-1.6-1-2.4-.1-3.5 1.5-1.8 2.5-1.8 3.3.2zm.8 10.9c-.8 1.5-1 1.3-1.4-1.4-.4-2.8-.3-3 1-1.8 1 1.1 1.1 2 .4 3.2zM167 326c0 .5-.4 1-1 1-.5 0-1 .7-1 1.5s.5 1.5 1.2 1.5c.9 0 .9.3.1 1.1-.6.6-.9 1.7-.7 2.4.6 1.4-5.2 3.9-6 2.6-.6-.8 2.4-7.2 4.4-9.6 1.4-1.7 3-2 3-.5zm28 3.7c0 1.1 3.7 2.9 5.3 2.5.4-.1.7.3.7.9 0 1.3-5.6.3-8.7-1.7-2.6-1.6-2.9-2.9-1.1-4.8 1.1-1.1 1.5-1.1 2.5.3.7.9 1.3 2.1 1.3 2.8zm-8.6 4.9c1.4.5 1.4.8-.1 3-.9 1.5-1.1 2.4-.4 2.4.6 0 1.1 1 1.1 2.1 0 1.7-.3 1.9-1.4 1-1.1-.9-1.5-.9-2 .1-.3.7-.3.1 0-1.5.4-1.5.2-2.7-.4-2.7-.5 0-.9-1.1-.9-2.5 0-2.5 1.1-3 4.1-1.9zm10.2.9c2.6 1.3 2.7 1.5.7 1.5-1.2 0-2.5.4-2.8 1-1.3 2-3.5 1-3.3-1.5.3-2.9 1.4-3.1 5.4-1zm-16.1.5c.3.5-.1 1-1 1s-1.3-.5-1-1c.3-.6.8-1 1-1 .2 0 .7.4 1 1zm203.1 5.5c-.3.8-1 1.5-1.5 1.5s-.4-1.1.2-2.5c1.2-2.5 2.3-1.6 1.3 1zM151 343.6c0 .8-.7 1.4-1.5 1.4-1.7 0-1.8-.2-.9-2.4.7-1.8 2.4-1.2 2.4 1zm30.2 1.7c-.7.8-.9 1.7-.5 2 .3.4.1 1.3-.6 2-.6.8-.9 2.2-.5 3.1.8 2.1-.5 2.1-2.1-.1-1.1-1.4-1.1-2.3.1-4.4.7-1.5 1-3 .6-3.3-.3-.4 0-1.1.8-1.6 2-1.3 3.7.5 2.2 2.3zm-21.2-1.4c0 .6-.4 1.3-1 1.6-.5.3-1-.1-1-.9 0-.9.5-1.6 1-1.6.6 0 1 .4 1 .9zm77 5.6c0 .8-.4 1.5-1 1.5-.5 0-1-.4-1-1 0-.5-.7-.7-1.5-.4-.8.4-1.5.1-1.5-.5s1.1-1.1 2.5-1.1c1.6 0 2.5.6 2.5 1.5zm-94.2 1.8c.2 1-.3 1.7-1.1 1.7-1.6 0-3-2.4-1.9-3.4 1-1 2.7-.1 3 1.7zm5.2-.5c0 .5-.7.9-1.5.9s-1.5-.4-1.5-.9c0-.4.7-.8 1.5-.8s1.5.4 1.5.8zm27.6 4.9c.4 1 .8 3.1.9 4.6.2 2.1-.1 2.7-1.3 2.5-1.1-.2-1.6-1.6-1.7-4.6-.2-4.4.7-5.5 2.1-2.5zm-28.1 7.3c-.3.5-1.1 1-1.6 1-.6 0-.7-.5-.4-1 .3-.6 1.1-1 1.6-1 .6 0 .7.4.4 1zm43.2 1.8c-.1 2.1-4.7 2.9-4.7.9 0-1.8 1-2.7 3.1-2.7 1.1 0 1.7.7 1.6 1.8zm27 .8c-.3.3-1.2.4-1.9.1-.8-.3-.5-.6.6-.6 1.1-.1 1.7.2 1.3.5zm-11.7 1.2c0 1-3.5 5.2-4.3 5.2-1.5 0-1.5-3.4 0-4.6 2-1.5 4.3-1.8 4.3-.6zm-41.3 1.9c-.4.3-.2 1.2.5 2 .8 1.1.7 1.7-.8 2.8-2.4 1.8-4.8 1.5-5.2-.7-.2-1 .8-2.2 2.5-3.1 3.3-1.7 3.9-1.9 3-1zm26.2 2.3c1.7-1.2 3.5-1.9 4-1.5 1.3.7.3 3.5-1.9 5.7-1.5 1.4-2.1 1.5-4.4.3-1.5-.8-2.6-1-2.6-.4 0 2.3-3.5.2-3.6-2.1-.2-3.4 1.6-4.3 3.7-1.8l1.8 2 3-2.2zm-9.9 1.1c0 .5-.7.9-1.5.9s-1.5-.7-1.5-1.5c0-.9.6-1.2 1.5-.9.8.4 1.5 1 1.5 1.5zm-30.2.1c.5.7.7 2.1.3 3.1-.6 1.6-.9 1.4-2.9-1.3-2.1-2.8-2.2-3-.4-3 1.1 0 2.4.6 3 1.2zm25.2 4.3c1.9 3.8 2.5 4.4 3.7 3.3 2.3-1.9 5.3-1.7 5.3.4 0 1 .5 2.7 1.2 3.8.7 1 .9 2.2.6 2.6-1.2 1.1-2.8-.6-2.8-3 0-1.2-.3-2.5-.6-2.9-.8-.7-6.4 1.3-6.4 2.3 0 .5-.9 1.1-2 1.4-1.1.3-2.9.9-4 1.2-1.7.4-2 .1-2-2.4s.5-3 2.9-3.5 2.8-1 2.4-2.7c-.3-1.1-.9-2-1.4-2-.5 0-.9-.7-.9-1.5 0-2.9 1.8-1.5 4 3zm202.4.9c-.3.8-1.2 1.2-2 .9-2.1-.8-1.7-2.3.6-2.3 1.3 0 1.8.5 1.4 1.4zm-222.6 1.8c1.6 1.6 1.5 2.9-.2 2.2-1.6-.6-3-3.4-1.8-3.4.5 0 1.3.5 2 1.2zm11.2.8c.9 1.6.8 2-.5 2-.8 0-1.5-.9-1.5-2s.2-2 .5-2c.2 0 .9.9 1.5 2zm-15 2.2c1.1.3.8.9-1.2 2.2-3.2 2.1-8.6 1.3-6.7-1 .6-.8.9-2 .6-2.8-.5-1.2-.1-1.3 2.6-.2 1.8.8 3.9 1.5 4.7 1.8zm188 3.3c.7.9.9 2.2.5 3.2-.8 1.7-.8 1.7-1.2.1-.4-1.4-.8-1.6-2.4-.8-1 .6-1.9 1.8-1.9 2.6 0 .9.5 1.2 1.1.8 1.1-.7 2.9 1.2 2.9 3.1 0 .5-.5.3-1-.5-.8-1.2-1-1-1 .8 0 1.3-.4 2-1 1.7-.6-.4-.8-1.1-.4-1.6.3-.6-.1-1.8-.9-2.7-.9-.9-1.6-2.2-1.5-2.7 0-1.6 1.9-3.5 2.9-2.9.5.3.9-.2.9-1 0-2 1.4-2 3-.1zm5-.5c0 .5-.7 1-1.5 1s-1.5-.5-1.5-1c0-.6.7-1 1.5-1s1.5.4 1.5 1zm-163.8 7.2c-1.4 1.4-5.5-2.4-4.7-4.3.5-1.5 1-1.3 3.1.8 1.6 1.6 2.2 2.9 1.6 3.5zm28.2-3.8c-.3.9-1 1.6-1.5 1.6-1.4 0-1.1-2.8.4-3.3 1.6-.6 1.9-.3 1.1 1.7zM152 390c2.9 2.9 3.9 6.3 2.1 7.5-.5.3-1.2-.4-1.6-1.5-.4-1.1-1.5-2-2.6-2s-1.7-.4-1.4-1c.3-.5.1-1.8-.4-2.8-.9-1.6-.6-3.2.5-3.2.2 0 1.7 1.3 3.4 3zm242 0c0 1.3-.5 1.8-1.5 1.4-1.6-.7-1.9-1.7-.8-2.7 1.2-1.3 2.3-.7 2.3 1.3zm-171.5 2c.3.5-.1 1-.9 1s-1.8-.5-2.1-1c-.3-.6.1-1 .9-1s1.8.4 2.1 1zm150.1 2.6c-1.1.7-2.2 1.1-2.5.8-.3-.3.3-1.2 1.3-2 1.1-.7 2.2-1.1 2.5-.8.3.3-.3 1.2-1.3 2zm19.4-.5c0 .6-.4.7-1 .4-.5-.3-1-1.1-1-1.6 0-.6.5-.7 1-.4.6.3 1 1.1 1 1.6zm-281.3 2.5c-.9.9-2.8-.6-2.1-1.8.4-.6 1-.6 1.7.1.6.6.8 1.3.4 1.7z"/><path d="M326 9c0 .5.5 1 1.1 1 .5 0 .7-.5.4-1-.3-.6-.8-1-1.1-1-.2 0-.4.4-.4 1zM305.3 103.7c.4.3 0 1.7-.8 3-.9 1.3-2.9 5.8-4.5 10.1-1.6 4.2-4.9 12.3-7.3 17.9-4.3 10.1-4.4 10.3-6.2 8.3-1.4-1.5-2.1-1.8-2.9-.9-.8.8-.7 1.3.3 1.6 1.1.5 1.1.7 0 1.4-1 .6-.8.9.9.9 1.3 0 2.2.6 2.2 1.5 0 1.1-.7 1.4-2.5.9-2.3-.6-2.5-.3-2.5 2.4 0 1.7.5 3.2 1.1 3.4 1 .3-.1 6.5-2.5 13.3-.4 1.1.7-.7 2.5-4 1.7-3.3 4.2-7.2 5.4-8.7l2.3-2.7 2.5 1.9c4 3.1 5.6 2.3 2-1-1.8-1.6-3.3-3.5-3.3-4.2 0-1.8 5.8-13.8 6.6-13.8.4 0 .4 1.9 0 4.2-.7 4.2-.6 4.2.9 2 .9-1.2 2.1-2 2.6-1.6.5.3 1.7 0 2.5-.7 1.4-1.2 1.4-1.4-.2-2.6-1.6-1.2-1.6-1.4-.1-3.1.9-1 1.7-2.6 1.7-3.5 0-1.9 3.9-8.7 5-8.7.8 0 2.2-4.1 2.5-7.5.1-1.1.5-3.1.9-4.5.6-2.2.2-2.7-3.6-4.3-4.5-1.8-6.6-2.2-5.5-1zM317.6 113.6c-.3.9-.6 2.3-.6 3.2 0 .8-1 2.6-2.2 3.9-2.1 2.2-2.1 2.3-.3 4.4 1.7 1.7 1.7 2.2.5 3-.8.5-2.3.7-3.3.5-1.7-.4-1.7-.3-.2 2.1 1.1 1.7 1.4 3.3.9 5.1-.4 1.5-.8 4.1-.9 5.8-.2 3-4.9 15.6-6.8 18.1-.6.8-.5 1.8.2 2.7.8 1 .8 1.6-.3 2.5-.8.7-1.7 2.4-2.1 3.9-.6 2.6-4.2 12.5-18.9 52.4-3.6 9.8-6.3 18.5-6 19.3.4.8.1 1.5-.4 1.5-1.6 0-2.5 3.9-1.3 5.3.7.9.7 1.7-.1 2.7-.8 1.2-.9 1.1-.4-.5.6-1.8.5-1.9-.7-.3-.8.9-3.5 8.8-6 17.5-2.6 8.7-6.1 20-7.8 25.1-1.7 5.1-2.9 9.6-2.6 9.9.9.9 9.5-6.9 10.7-9.7.6-1.4 2.1-3.2 3.4-4 6.4-4 23.8-22.8 34-36.8 15.1-20.9 24.3-38.9 31-60.8 2-6.5 4.3-13.9 5.1-16.4 3.2-10.3-.1-38.8-5.5-47.5-2.4-3.9-7.5-8.6-12.7-11.9-4.9-3-5.9-3.2-6.7-1zM281.5 243c.3.5.1 1-.4 1-.6 0-1.1-.5-1.1-1 0-.6.2-1 .4-1 .3 0 .8.4 1.1 1z"/><path d="M285 136.9c0 .6.5 1.3 1 1.6.6.3 1-.1 1-.9 0-.9-.4-1.6-1-1.6-.5 0-1 .4-1 .9zM288 158.6c0 .8.5 1.2 1 .9.6-.3 1-1 1-1.6 0-.5-.4-.9-1-.9-.5 0-1 .7-1 1.6zM289.6 167.5c-.2.7.2 1.6 1 1.9 2.2.8 2.4.8 2.4-.8 0-1.9-2.7-2.8-3.4-1.1zM273.6 169.4c.3.8 1.2 1.2 2 .9.8-.3 1.4-.1 1.4.4s.9.9 2 .9c2.6 0 2.6-.2-1.2-2-3.9-2-4.9-2-4.2-.2zM270.5 182.2c1.2 6.3 1.3 7.3 1.4 8.2.1.5 1 .1 2.1-.9 1.9-1.8 1.9-1.8 0-4.5-1.1-1.6-2-3.5-2-4.4 0-.9-.5-1.6-1-1.6-.7 0-.9 1.3-.5 3.2zM267.2 187.6c.4 2.1 2.2 2.3 2.6.1.2-1-.3-1.7-1.3-1.7s-1.5.6-1.3 1.6zM266.6 197.6c-.9 3.4-.3 3.9 1.8 1.5 1.4-1.5 1.4-2 .2-3-1.1-.9-1.5-.6-2 1.5zM263 198.9c0 .5.5 1.3 1 1.6.6.3 1 .2 1-.4 0-.5-.4-1.3-1-1.6-.5-.3-1-.2-1 .4zM278.1 201.7c-.6 1-1.1 1.2-1.1.5 0-.6-.5-1.2-1.1-1.2-.8 0-.8.4.1 1.5s1.6 1.2 3.1.2c2-1.3 2.5-2.7.9-2.7-.5 0-1.4.8-1.9 1.7zM264 205c0 .5.5 1 1.1 1 .5 0 .7-.5.4-1-.3-.6-.8-1-1.1-1-.2 0-.4.4-.4 1zM254 209.9c0 2.7 2.4 6 3.6 4.8.3-.3.2-2.1-.1-4.1-.9-4.4-3.5-4.9-3.5-.7zM265.3 208.7c-.7.3-1.3 1.1-1.3 2 0 1.7 2.8 4.8 3.7 3.9 1.1-1-1.1-6.3-2.4-5.9zM241 228c0 .5.7 1 1.5 1s1.5-.5 1.5-1c0-.6-.7-1-1.5-1s-1.5.4-1.5 1zM251.2 237c1.5 2.3 2.8 2.6 2.8.6 0-.8-.7-1.7-1.6-2-2.4-.9-2.5-.8-1.2 1.4zM236.8 262.9c1.1.6 1 1.1-.3 2.5-.9.9-2.3 1.6-3.1 1.6-.8 0-1.4.7-1.4 1.6 0 2 4.1 1.5 5.8-.9.7-.9 2-1.7 2.9-1.7 1.1 0 .8-.6-1-2-1.4-1.1-2.9-2-3.4-2-.4 0-.2.4.5.9zM259.8 262.7c.7.3 1.6.2 1.9-.1.4-.3-.2-.6-1.3-.5-1.1 0-1.4.3-.6.6zM258.4 267.5c-.9 2.2.1 2.9 1.5 1.1.8-1 .9-1.6.1-2.1-.5-.3-1.3.1-1.6 1zM238 271c-.8.5-1.2 1.1-.9 1.4.2.3 1.1.1 1.9-.4.8-.5 1.2-1.1.9-1.4-.2-.3-1.1-.1-1.9.4zM228.1 291.2c-.5 1.4-.5 2.4.1 2.7 1.3.4 4.9-3 4.2-4-1-1.7-3.5-.9-4.3 1.3zM219.6 208.6c-.9 2.3-.8 2.4 1.4 2.4 2.4 0 2.5-.6.6-2.5-1.2-1.2-1.5-1.2-2 .1zM318 1c0 .5.6 1 1.4 1 .8 0 1.8-.5 2.1-1 .3-.6-.3-1-1.4-1-1.2 0-2.1.4-2.1 1zM278.1 4c-.1 1.8 1.8 4 3.4 4 .5 0 .3-.6-.6-1.3-.9-.7-1.8-1.9-2.2-2.7-.5-1.3-.6-1.3-.6 0zM244.6 6.6c-.8 2.2-.8 2.6.3 2 .5-.4 1.7-.3 2.7.1 1.6.6 1.6.7-.1 1.9-2.7 2-1.6 13.7 1.5 16.4 2.1 1.8 4 2.5 6.2 2.1.4 0 .5.5.2 1.3-1 2.5 2.1 3.7 8 3 4.6-.6 5.6-1 5.6-2.5 0-1.2-.7-1.9-2-1.9-2.6 0-4.8-3.9-2.9-5.1 2-1.3 2.7-1.1 3.2.8.3 1 .3-.7 0-3.7-.6-7.5-1-8.3-3.2-7.7-1.3.3-1.8 0-1.5-.8.3-.7.1-1.6-.5-2-1.4-.8-4.1 1.8-4.1 3.9 0 2.6-7.8 3.6-8.7 1.1-.2-.6.7-1.5 1.9-2 1.2-.6 2.5-2.2 2.9-3.7.6-2.5.5-2.6-2.8-2.3-2.3.2-3.6-.2-4-1.1-.7-1.9-1.9-1.8-2.7.2zM287 9.9c1.1 4 2.8 6.8 4.2 7.4 1 .4 1 .8-.2 1.6-.8.5-1.2 1.3-.8 1.6.4.4 1.4-.5 2.4-2 1.6-2.5 1.6-2.7-.5-4.6-1.1-1.1-2.1-3.1-2.1-4.4 0-1.8-.5-2.5-1.9-2.5-1.7 0-1.8.4-1.1 2.9zM398 8c0 .5.5 1 1 1 .6 0 1-.5 1-1 0-.6-.4-1-1-1-.5 0-1 .4-1 1zM229.5 12c-.3.5.1 1 .9 1 .9 0 1.6-.5 1.6-1 0-.6-.4-1-.9-1-.6 0-1.3.4-1.6 1zM273.5 13.9c-.4 1.2-1.7 3.3-3.1 4.7-1.7 2-2.1 3.1-1.4 4.3 1.8 3.4 3.5 4.2 6.3 2.8 3.6-1.6 3.4-3-.3-2.2-3.1.7-3.6 0-2.1-2.4.7-1.1 1.3-1.2 2.3-.3 1.2.9 1.4.4 1.2-2.9-.2-4.9-1.9-7.1-2.9-4zM204 17.3c0 1.5 1.1 2.9 3.3 4.2 1.7 1 3.7 2.6 4.4 3.4 1.6 2.1 3.6.2 3.6-3.4 0-3.8-2.6-6-7.3-6.2-3.5-.2-4 .1-4 2zM297.8 16.7c.7.3 1.6.2 1.9-.1.4-.3-.2-.6-1.3-.5-1.1 0-1.4.3-.6.6zM188 19c0 .5.6 1 1.4 1 .8 0 1.8-.5 2.1-1 .3-.6-.3-1-1.4-1-1.2 0-2.1.4-2.1 1zM220.1 20.9c-3.4 3.2-3.8 4.6-1.7 5.4 1.6.7 3-.8 4-4.1.4-1.2 1.2-2.2 1.7-2.2s.9-.5.9-1c0-1.7-1.7-1.1-4.9 1.9zM201 25c2.8 2.2 4 2.5 4 1 0-1.1-3.3-3-5.2-3-.7 0-.2.9 1.2 2zM218.2 28.7c-.9.3-1.1 1.6-.7 4.1.9 5.3 1.5 6.8 2.3 5.7.4-.6 1.6-1.5 2.7-2.1 1.1-.6 2.1-2.1 2.3-3.3.3-1.7-.2-2.1-2.2-2.1-1.3 0-2.6-.6-2.8-1.3-.2-.8-.9-1.2-1.6-1zM237.1 29.8c-.6 1.1-1.8 2.7-2.6 3.5-1.9 1.9-.9 4.7 1.6 4.7 1 0 1.9-.4 1.9-.8s1.4-1.6 3.1-2.6c2.5-1.5 3.3-1.6 3.9-.5.6.8-.5 2.6-3.1 5.2-2.7 2.8-3.9 4.8-3.9 6.8 0 2.8 2.2 4.1 3.4 2.1.3-.5 1.9-.9 3.5-1 2.8-.1 2.9.1 1.8 1.9-.6 1-1.7 1.9-2.4 1.9-2 0-1.5 1.7 1 4 1.9 1.8 1.9 2 .3 1.4-1.6-.6-1.8-.4-1.3 1 .6 1.4.3 1.6-1.6 1-1.2-.4-3-.7-3.9-.6-.9 0-2-.8-2.3-1.9-.9-2.7-6.1-5.8-8.6-5.2-2.9.8-2.3 4.7 1.3 8.4l3.2 3.2 10.6-.6c12.7-.8 14.5-1.2 14.7-3.8.2-2.6 2.1-4.9 4-4.9 1.3 0 1.3-.3.3-1.5-.7-.8-2.4-1.5-3.7-1.5-2 0-2.4-.4-2-2 .3-1.1.1-2-.5-2-.5 0-.7-1.5-.4-3.3 1-6.1-.3-9.6-4.3-11.4-2-.9-4-1.9-4.5-2.1-.5-.3-.6.4-.2 1.4.6 1.5.5 1.7-.5.6-.7-.6-2.2-1.2-3.4-1.2-1.2 0-2.6-.5-3.2-1.1-.8-.8-1.4-.6-2.2.9zM251 41.6c0 .9-3.2 3.3-4.4 3.4-.5 0-.1-.9 1-1.9 1.9-2 3.4-2.6 3.4-1.5zm4 .8c0 1.1-1.9 1.5-2.5.6-.3-.5.1-1 .9-1 .9 0 1.6.2 1.6.4zm-1.7 15.3c-.7.2-1.9.2-2.5 0-.7-.3-.2-.5 1.2-.5s1.9.2 1.3.5zM276.6 28.8c-.3.5 0 .9.7.9.7.1 2.7.4 4.5.8 1.9.5 3.2.4 3.2-.3 0-1.8-7.4-3-8.4-1.4zM307.6 28.9c-.4.7-.5 1.5-.2 1.8.9.9 1.9-.4 1.4-1.8-.4-1.1-.6-1.1-1.2 0zM228 30.9c0 2.5 2 3.8 3.1 2 1.5-2.3 1-3.9-1.1-3.9-1.3 0-2 .7-2 1.9zM203 31c0 .5.5 1 1 1 .6 0 1-.5 1-1 0-.6-.4-1-1-1-.5 0-1 .4-1 1zM299 31.5c.7.9 1.5 1.3 1.7 1.1.7-.7-.7-2.6-1.9-2.6-.6 0-.6.6.2 1.5zM274 34.8c0 1.8-.3 3.2-.8 3.2-.4 0-1.2 1.5-1.7 3.3-1 3-.9 3.3.9 3.5 1.1 0 2.6-.4 3.3-1 1-.8 1.8-.6 3.3.7 1.9 1.7 2 1.7 2-.3 0-1.1.8-2.2 1.8-2.5 1.5-.3 1.5-.5-.3-1.2-2.4-1.1-4.5-3-4.5-4.3 0-.5-.9-1.7-2-2.7-2-1.8-2-1.7-2 1.3zM286 33.4c0 1.4 4.2 4.7 5.5 4.2 1-.3 1.5.1 1.5 1.2.1 1.5.2 1.5 1.1-.2 1.4-2.2-.8-4.1-2.8-2.4-.9.7-1.4.6-1.9-.5-.5-1.3-3.4-3.3-3.4-2.3zM297.2 34.2c.5 1.5 2.8 2.3 2.8 1 0-.5-.7-1.3-1.6-1.6-1-.4-1.4-.1-1.2.6zM209 34.9c0 .6.5 1.3 1 1.6.6.3 1-.1 1-.9 0-.9-.4-1.6-1-1.6-.5 0-1 .4-1 .9zM194.6 36.6c-.8 2.2-.9 2.1 2.6 3.3 2.9 1 3.4.9 5-1.1 1.6-2.2 1.6-2.3 0-3-3.1-1.2-7-.8-7.6.8zM268 38c0 .5.7 1 1.5 1s1.5-.5 1.5-1c0-.6-.7-1-1.5-1s-1.5.4-1.5 1zM261.5 39.1c-.4.6-.4 1.3-.1 1.6.3.4.6.1.6-.5s.8-1.3 1.8-1.5c1.5-.4 1.5-.5 0-.6-.9 0-2 .4-2.3 1zM266 40.9c0 .6-1.2 1.4-2.7 1.8l-2.8.6 2.8.8c4.8 1.3 7.3-.6 4.2-3.1-1-.8-1.5-.9-1.5-.1zM200.2 44.1c-1.4.5-2.2 1.5-2 2.6.5 2.6 2.3 2.6 3.8-.2 1.6-3 1.2-3.5-1.8-2.4zM205.5 46.3c0 3.6 1.2 6 2.6 5.2 1.5-1 1-5.1-.8-6.8-1.7-1.4-1.8-1.3-1.8 1.6z"/><path d="M260.5 46c-.3.5-.1 1 .4 1 .6 0 1.1-.5 1.1-1 0-.6-.2-1-.4-1-.3 0-.8.4-1.1 1zM224.6 47.6c-.4 1 .2 1.4 1.9 1.4 3 0 3.3-1.6.6-2.3-1.2-.3-2.2.1-2.5.9zM189.6 49.9c-1.5 1.7-1.4 1.9.9 2.9 1.4.7 2.8 1.2 3 1.2 1.1 0 .4-3.2-.9-4.5-1.2-1.2-1.6-1.1-3 .4zM196 52.9c0 .6.4 1.2 1 1.6.5.3.7 1.2.4 1.9-.7 1.7 1.4 3.3 5.1 3.9 1.7.3 3.7.8 4.6 1.2 3.7 1.5 3.6-5-.1-7.3-1.6-.9-2.6-1-4.2-.1-1.7.9-2.3.8-3-.5-1-1.7-3.8-2.2-3.8-.7zM192.9 59.9c1.3 2.3 2.6 2.7 3.6 1 .8-1.3.6-1.5-2.3-2.4-2.2-.6-2.3-.5-1.3 1.4zM226 63c0 2.7.3 2.9 3.5 2.8 2-.1 3.8-.5 4.1-1 .3-.4.1-.8-.4-.8s-1.9-.9-3.2-2c-3.1-2.7-4-2.5-4 1zM197 64c0 .5.5 1 1.1 1 .5 0 .7-.5.4-1-.3-.6-.8-1-1.1-1-.2 0-.4.4-.4 1zM222.5 64c.3.5.8 1 1.1 1 .2 0 .4-.5.4-1 0-.6-.5-1-1.1-1-.5 0-.7.4-.4 1zM242.8 68.5c-.3.3-3.3.7-6.7.9-6.3.4-8.9 1.5-7.7 3.5 1 1.6 5.2 1.3 7-.4.8-.8 2.5-1.5 3.8-1.5 2.6 0 5.6-1.6 4.7-2.4-.3-.4-.8-.4-1.1-.1zM191 71.9c0 1.8.4 3 .8 2.7 1.1-.7 5.2 4.8 5.2 6.9 0 2.4 1.9 1.7 2.6-1 .7-2.7 3.2-3.3 5.2-1.3 1.6 1.6 2.9-1.9 1.5-4-1.3-2.1-7-4.9-11.5-5.7-3.7-.7-3.8-.7-3.8 2.4zM218.6 74.5c-.3.9.1 1.8 1 2.2 1.9.7 2.8-.2 2.1-2.2-.8-1.9-2.3-1.9-3.1 0zM224 76c0 .5.5 1 1 1 .6 0 1-.5 1-1 0-.6-.4-1-1-1-.5 0-1 .4-1 1zM208 82.1c0 3.4 1.4 5.9 3.1 5.9 3.1 0 2.4-3-1.3-5.9-1.5-1.1-1.8-1.1-1.8 0zM115.2 88.8c-1.6 3.7-3.8 7.5-4.8 8.3-1.6 1.3-1.7 1.2-1.2-1.6.6-3 .6-3-1-.8-6.8 9-8.9 11.3-10.2 11.1-2.4-.5-2.3-3.4.3-9.2 4.4-9.5 4.4-14.6 0-13.2-2.5.8-17.7 35.3-16.7 37.9.3 1-.8 3.9-2.9 7.4-3.5 5.8-5.4 10.8-10.3 27.5-1.5 5-3.7 9.9-5 11.3-2.4 2.7-2.8 3.6-2.4 6.8.1 1.1-.8 2.6-1.9 3.4-2.7 1.8-2.7 4.3-.1 4.3 1.3 0 2 .7 2 2 0 1.1-.4 2-.8 2-1.1 0-5.2 9.5-5.2 12 0 1.1-.4 2-1 2-.5 0-1-.8-1-1.8-.1-1.4-.2-1.5-.9-.2-1.6 2.9-2.4 6.3-1.2 5.6 2-1.3 1.1 1.8-1.9 6.9-1.6 2.7-3 5.7-3 6.6 0 .9-.6 2.2-1.4 2.8-.8.7-1.7 3.5-2.1 6.4-.4 2.9-1.6 7.2-2.6 9.7-1.2 2.6-1.7 5.5-1.4 7 .4 2-.1 3.1-2.1 4.9-1.9 1.6-2.5 2.9-2.1 4.8.6 3.2-1.1 9.8-3.6 14.3-7 12.1-7.6 13.5-6.4 14.2.9.6.8 1.2-.5 2.1-.9.7-2.1 3.8-2.7 7-.6 3.1-1.7 7.1-2.6 8.8-.9 1.7-1.4 3.7-1.1 4.5.3.8.1 2.5-.4 3.8-.7 1.8-.5 2.6.6 3 .8.3 1.4 1.2 1.4 1.9 0 .8 1 1.8 2.2 2.4 1.8.8 3.2.4 7.1-2 3.5-2.1 5.1-2.7 5.9-1.9.8.8 1.5.7 2.4-.5 1-1.4 1.8-1.5 4.6-.7 4.7 1.5 10.4.8 13.8-1.6 2-1.4 3.1-1.7 3.6-.9.7 1.2-.7 2.5-4.6 4-1.4.5-3.4 2.3-4.5 3.9-1.4 2.1-3.9 3.6-8.4 5.2-5.3 1.9-6 2.4-4 2.8 1.7.4 2.4 1.3 2.3 2.8 0 1.5.5 2.2 1.8 2.2 1.7 0 2.2-1 1.8-3.9-.1-.8.4-1.7 1-2.1 1.8-1.1 5.2.1 4.6 1.6-.6 1.6 1.1 1 7.4-2.5 8.2-4.5 9.2-4.9 10.6-4.4 1.9.7 7.5-3 11.7-7.6 1.8-2.1 6.1-5.4 9.3-7.4 6.8-4.1 9.4-6.7 14.4-14.2 1.9-2.9 5.7-8.2 8.4-11.7l4.8-6.3-6 6.5c-3.4 3.6-6.1 6.1-6.2 5.7 0-.5 2.7-4.6 6.1-9 3.4-4.5 6.7-9.6 7.4-11.2.7-1.7 2.1-4.7 2.9-6.7.9-2 2.1-4 2.6-4.3 1.2-.7 10.5-19.5 11.4-22.9.3-1.4 1.2-2.5 1.8-2.3.7.1 1.4-.9 1.6-2.2.2-1.4 1-3.4 1.7-4.5.8-1.2 2.8-5.7 4.5-10 5.7-14.5 7.2-15.7 3.4-2.6-4 13.4-4 13.8-2 12.1 1.4-1.2 1.9-1.2 2.6-.2.4.8 1.3 1 2 .6.8-.5.7-1.2-.6-2.6-1.6-1.8-1.4-2.5 5-15.4 6.3-12.6 8.6-16.2 8.6-13.5 0 .8.6.8 2 0 1-.6 2.3-1 2.7-.9 2 .3 2.4-.2 1.3-1.6-1-1.2-.7-2.5 1.5-7.1 2.6-5.3 2.7-6.1 2.1-14.2-.9-10.5-1.8-12.4-5.2-11.6-2.6.7-11.4-1.3-11.4-2.6 0-.4 4.5-5.2 10-10.6 5.5-5.5 12.6-13.3 15.8-17.4 3.1-4.1 5.9-7.7 6.2-8 3.9-3.8 10.6-16.2 9.6-17.9-.4-.5.1-1.4 1-1.9 2.1-1.2 1-3.2-1.4-2.5-1 .2-2.4-.3-3.1-1.1-.8-.9-1.8-1.6-2.3-1.6-.5 0-3-1-5.6-2.3-4.3-2-6-2.2-18.2-1.9-10.6.2-15.7.8-24.5 2.9-6 1.5-11.4 2.8-12 2.8-1 0-1.1-.5-1.4-5-.1-2.3-.4-2.5-5.5-2.5h-5.3l-3.1 6.8zm35.8 16.7c1 1.2.9 1.6-.2 2-1 .4-1.3 1.6-1 3.6.8 5.7-4.7 14.5-16 25.5-18.8 18.1-25.9 23.1-24.5 17.1.3-1.2 1.5-6.6 2.6-12 1.1-5.3 3-11.7 4.1-14.2 1.1-2.4 2-4.8 2-5.3 0-2.3 8.2-8.6 17.2-13.2 10.4-5.2 13.7-6 15.8-3.5zm17.4 8.3c-2.9 4.4-8.8 11.2-9.7 11.2-1 0 1.7-4.8 3.7-6.5.6-.6 2.4-3 4.1-5.4 3.1-4.6 4.9-4 1.9.7zm-68.2 1.7c.9.9-5 16.6-7.8 20.9-2.9 4.3-4.4 3.6-4.4-1.9 0-7.4 3.2-15.1 7.5-17.7 3.2-1.9 3.9-2.1 4.7-1.3zm5.8 1.5c0 .5-.4 1-1 1-.5 0-1-.5-1-1 0-.6.5-1 1-1 .6 0 1 .4 1 1zm-5 8.7c0 2.3-2.2 8.3-3 8.3-1.3 0-1.2-1.7.2-5.7 1.1-2.9 2.8-4.5 2.8-2.6zm50 16.9c0 1.9-4.1 6.1-6.7 6.9-3 .8-2.9-.5.3-7.4l2.7-5.5 1.8 2.3c1.1 1.3 1.9 2.9 1.9 3.7zM80 172c-1.2 2.2-3 1.9-3-.5 0-1.6 3.3-3.8 3.8-2.5.2.5-.2 1.8-.8 3zm49.3 11c2.3 2.6 2.5 3.6 2 9.2-.6 8.1-2.1 12.8-4.6 14.9-1.9 1.5-1.9 1.9-.7 4.8s1.1 3.4-1.1 5.9c-1.3 1.5-2.8 3-3.3 3.3-.5.4-.6 1.1-.2 1.7 1 1.6-3.4 10.4-7 13.8-3 2.7-3.4 3.8-3.4 8 0 5.7-1.7 8.6-5.8 10.3-3 1.3-4.6 3.6-5.6 8.3-.3 1.4-2.6 4.6-5.2 7-4.3 4.1-12.2 14.3-15.4 19.9-2.2 3.9-5.1 7-9.7 10.7l-4.2 3.3-.7-2.6c-.3-1.4-.2-4.3.4-6.5.5-2.1.8-5.3.6-7-.2-1.8.5-4.8 1.6-7s2-4.9 2-6c0-1.1.9-3.7 1.9-5.8 1.8-3.5 8.1-26 8.1-28.9 0-.7 1.1-3 2.4-5.1 1.3-2.1 2.9-6.3 3.5-9.4 1.1-5.2 9.6-30.7 10.6-31.7.3-.2 2.9-.5 5.8-.6 5.5-.2 10.8-3.1 19.5-10.7 4.1-3.5 5.4-3.5 8.5.2zm-59.8 21c-.9 2.8-2.1 5-2.6 5-1.4 0-1.1-2.4 1.4-8.7 1.6-4.3 2.3-5.2 2.5-3.5.2 1.2-.4 4.5-1.3 7.2zM196 88c0 .5.7 1 1.5 1s1.5-.5 1.5-1c0-.6-.7-1-1.5-1s-1.5.4-1.5 1zM212.6 97.8c-.4.7-1.8 1-3.4.6-1.5-.3-2.2-.2-1.6.3 1.5 1.1 3.7 5.4 3.1 6-.3.3-1.3.1-2.2-.4-1.2-.7-2.5-.1-5.3 2.7-2 2-4.4 4-5.2 4.3-1.2.6-1.2.8-.2 1.3s.8 1.2-.9 3c-2.2 2.3-2.2 2.4-.3 2.4 2.5 0 4.4-1.8 3.8-3.5-.3-.8.7-1.5 2.8-1.8 10.6-1.9 11.6-2.4 10-5.4-1.1-2.1-.5-4.6.9-3.7 1.1.6 1.1-2.3 0-5-.5-1.4-1-1.6-1.5-.8z"/><path d="M199 104.5c0 .8.7 1.5 1.5 1.5s1.5-.7 1.5-1.5-.7-1.5-1.5-1.5-1.5.7-1.5 1.5zM219.1 105.6c0 1.1.3 1.4.6.6.3-.7.2-1.6-.1-1.9-.3-.4-.6.2-.5 1.3zM228.4 108.5c1.1.8 2.2 1.2 2.5.9.6-.6-1.9-2.4-3.4-2.4-.5.1-.1.7.9 1.5zM244.2 109c-1 1.6-1 2 0 2 1.5-.1 4.8-2.4 4.8-3.4 0-1.5-3.6-.4-4.8 1.4zM220.6 109.4c.6 1.5 3.4 3 4.1 2.2.5-.5-2.6-3.6-3.7-3.6-.5 0-.7.6-.4 1.4zM227 113.6c0 1.4.4 2.3 1 1.9.6-.3 1 0 1 .7s.6.2 1.4-1.2c1.5-3 1.2-4-1.5-4-1.4 0-1.9.7-1.9 2.6zM233 116c0 .5.9 1 2.1 1 1.1 0 1.7-.5 1.4-1-.3-.6-1.3-1-2.1-1s-1.4.4-1.4 1zM204.3 120.2c-3 1.5-2.9 2.8.2 2.8 1.8 0 2.5-.5 2.5-2 0-1.1-.1-2-.2-1.9-.2 0-1.3.5-2.5 1.1zM235.5 119.8c-1.5 1.1-1.7 6.4-.2 5.9.7-.2 1.2-1.8 1.2-3.5.1-1.8.1-3.2 0-3.2 0 0-.4.4-1 .8zM190 123c-1.3.8-1.2 1 .3 1 .9 0 1.7-.5 1.7-1 0-1.2-.1-1.2-2 0zM204.8 124.6c-5.3 1.6-5.6 2.1-3.1 4 1 .7 1.4 1.6 1 2-.4.5-1.2.2-1.7-.6-1-1.7-1.2-1.5-3.2 2.5-1.3 2.8-1.3 3.2.9 5.5 1.6 1.7 1.9 2.6 1.1 3.2-.7.4-.9 1-.6 1.3.4.4 1.2-.2 1.9-1.2.8-1.3 1.9-1.8 3.5-1.5 1.4.2 2.4 0 2.4-.7s-.4-.9-1-.6c-1.8 1.1-1.1-1.2 1.7-5.4 1.5-2.3 3.3-4.1 4-4.1 1.6 0 1.6-.2.1-3.5-1.3-2.9-.8-2.8-7-.9zm.2 10.4c0 .5-.4 1-1 1-.5 0-1-.5-1-1 0-.6.5-1 1-1 .6 0 1 .4 1 1z"/><path d="M209.8 134.1c.8 2.2 2.4 2.7 3 1 .2-.5-.6-1.5-1.7-2.1-1.8-.9-2-.8-1.3 1.1zM214.6 135.5c-.9 2.4-.8 3.7.3 3.1.5-.4 2.2-.1 3.7.4 3 1.2 3.3 1.1 3.9-1.8.2-1.4-.2-2.1-1.3-2-.9 0-2.7-.3-3.8-.7-1.5-.5-2.3-.2-2.8 1zM192.3 137.5c-.9 2-.8 2.5.3 2.5.8 0 1.4-.4 1.4-.9s.3-1.6.6-2.5c1-2.6-1-1.8-2.3.9zM208.4 139.1c-1 1.7 1.3 3.6 2.7 2.2 1.2-1.2.4-3.3-1.1-3.3-.5 0-1.2.5-1.6 1.1z"/><path d="M215 140c-1.3.8-1.2 1 .3 1 .9 0 1.7-.5 1.7-1 0-1.2-.1-1.2-2 0zM169.6 142.9c-.4.7-.5 1.5-.2 1.8.9.9 1.9-.4 1.4-1.8-.4-1.1-.6-1.1-1.2 0zM211.7 145.2c-1.5 1.9-1.5 2.4-.3 3.6.8.8 2.2 1.2 3 .9 1.8-.7 2.2-2.7.5-2.7-.5 0-.7.5-.3 1.2.4.6.3.8-.3.5-.6-.4-.8-1.8-.5-3.2.5-3.1.2-3.1-2.1-.3zM183.7 145.9c.3 1.1-.2 3-1.1 4.3-2.2 3.1-2.1 5.1.3 4.3 1.1-.3 2.2-.1 2.6.5.3.5 1.6 1 2.9 1 2.2 0 2.3-.1 1.2-4.5-.7-2.5-2.1-5.1-3.1-6-2.7-2-3.4-1.9-2.8.4zM178.7 147.4c-.6 1.6.2 2.8 1.4 2 1.2-.7 1.1-3.4 0-3.4-.5 0-1.1.6-1.4 1.4zM193.7 147.4c-.8 1.9.1 4.6 1.5 4.6.6 0 .8-.7.5-1.4-.4-1-.1-1.3.9-.9.8.3 1.3 1.1 1 1.8-.5 1.3 1.2 3.5 2.6 3.5.4 0 .8-1.3.8-2.9 0-2.3-.5-3-2.7-3.6-1.5-.3-3.1-1.1-3.4-1.7-.4-.5-.9-.3-1.2.6zM170.3 149.2c-.1 1 .3 1.8.9 1.6 1.8-.6 2.1-2.5.5-3.1-.8-.3-1.3.3-1.4 1.5zM205.8 148.8c-1.3 1.4-1.4 2.1-.5 3.7.7 1.1 1.9 2.1 2.7 2.2 1.2.2 1.5-.6 1.2-3.7-.4-4.4-.9-4.7-3.4-2.2zM203 156.7c.5 2 .7 4 .4 4.4-.2.4.7.6 2.1.5 1.4 0 2.5-.2 2.5-.4 0-1-3.1-6-4.3-7.1-1.3-1-1.4-.7-.7 2.6zM196.5 156c-.3.5.1 1 .9 1 .9 0 1.6-.5 1.6-1 0-.6-.4-1-.9-1-.6 0-1.3.4-1.6 1zM210 156c-2 1.2-1 1.9 1.4 1 1.1-.3 1.5-.9 1-1.3-.6-.3-1.6-.2-2.4.3zM212 159c-.8.5-1 1-.5 1.1 4.9.5 6.5.4 6.2-.4-.4-1.4-3.9-1.8-5.7-.7zM195 162.8c0 1.2 1.9 2.6 2.6 1.9.2-.2-.2-1-1.1-1.7-.9-.8-1.5-.8-1.5-.2zM212.5 164c-.3.6.1.7.9.4 1.8-.7 2.1-1.4.7-1.4-.6 0-1.3.4-1.6 1zM215 166.9c0 .6.5 1.3 1 1.6.6.3 1-.1 1-.9 0-.9-.4-1.6-1-1.6-.5 0-1 .4-1 .9zM174 178.2c0 .4-.7.8-1.5.8s-1.5.4-1.5.9c0 1.1 4.6 4.5 7 5.3 1.8.6 4-2.1 3.3-4-.4-1-1-.9-2.4.4-1.5 1.4-2.2 1.5-3.1.6-.9-.9-.9-1.2 0-1.2.7 0 1.2-.6 1.2-1.4 0-.8.6-1.7 1.3-1.9.6-.3 0-.5-1.5-.4-1.6.1-2.8.5-2.8.9zM196 179.5c0 .9 1 1.5 2.6 1.5 2.3 0 2.4-.2 1-1.5-.8-.8-1.9-1.5-2.5-1.5-.6 0-1.1.7-1.1 1.5zM183.5 182.9c.6 3.2 2.5 6.2 3.6 5.6 1.4-.9 1.1-3.3-.8-5.5-2.2-2.5-3.3-2.6-2.8-.1zM193 183c0 .5.5 1 1.1 1 .5 0 .7-.5.4-1-.3-.6-.8-1-1.1-1-.2 0-.4.4-.4 1zM226 194.9c0 .5.5 1.3 1 1.6.6.3 1 .2 1-.4 0-.5-.4-1.3-1-1.6-.5-.3-1-.2-1 .4zM195 196.5c0 1.6 1.6 2 2.4.6.3-.5-.1-1.1-.9-1.5-.9-.3-1.5 0-1.5.9zM153.7 211.1c2.2 2.2 4.3 1.9 4.3-.7 0-.9-1.1-1.4-3.2-1.4h-3.2l2.1 2.1zM169 216.7c0 2.3-5.1 4.4-5.8 2.4-.2-.6-1.1-1.1-2-1.1-1.3 0-1.2.3.4 1.5 1.5 1.2 1.6 1.6.5 2.4-1 .6-1 1-.1 1.6.7.4 1.6.2 2-.5 1-1.6 3-.4 3 1.8 0 1.3.9 1.7 3.3 1.7h3.3l-1.8-5.4c-2.1-6.2-2.8-7.3-2.8-4.4zM149 222c0 .5.5 1 1.1 1 .5 0 .7-.5.4-1-.3-.6-.8-1-1.1-1-.2 0-.4.4-.4 1zM152 225.1c0 .6-.7.9-1.5.6-1.8-.8-2.9.8-1.8 2.7.9 1.6 7.9 6.6 9.2 6.6.5 0 1.4-.6 2-1.3.8-1 .6-2.4-.7-5.5-1.4-3.5-2.2-4.2-4.4-4.2-1.6 0-2.8.5-2.8 1.1zM140.3 229.4c.2 3.8.4 4.3 1.9 3.5.9-.5 2-1.4 2.3-1.9.4-.6 1.5-.8 2.6-.5 2.6.9 1.5-1.9-1.6-3.9-4.2-2.8-5.4-2.1-5.2 2.8zM170.8 228.8c-1 .2-1.8.9-1.8 1.6 0 2.4 1.3 2.6 2.8.5 1.6-2.3 1.4-2.7-1-2.1zM166.2 234.7c.2.9.9 1.8 1.6 2.1 1.8.6 1.5-2.5-.4-3.2-1.1-.4-1.4-.1-1.2 1.1zM142.6 237.6c-.9 3.5-.1 4.1 2.4 1.9 2.5-2.3 2.6-4.5.1-4.5-1.2 0-2.1.9-2.5 2.6zM151.4 236.5c-1.7 1.3-1.7 1.4-.2 1.5.9 0 2-.5 2.3-1.1 1.1-1.7 0-2-2.1-.4zM155 239c0 .8-1 2.4-2.1 3.7-1.8 1.9-2 2.5-.9 3.8 1.1 1.3 1 1.9-.6 3.7-1.4 1.6-1.6 2.2-.6 2.5.9.4 1 .8.2 1.8-.8.9-.8 1.5 0 2 .5.3 1 1.5 1 2.6 0 1.4.7 1.9 3 1.9 2.5 0 3.2-.6 4.5-3.7 1.8-4.3 1.4-6.3-1.4-6.3-2.3 0-3.6-1.6-2.2-2.5 1.1-.6.9-9-.2-10.1-.4-.4-.7-.1-.7.6zM133.5 240c-.3.5-.1 1 .4 1 .6 0 1.1-.5 1.1-1 0-.6-.2-1-.4-1-.3 0-.8.4-1.1 1zM168.3 240.5c-1 1-.9 1.5.4 1.9 2.1.8 2.7.1 1.6-1.7-.6-1.2-1-1.3-2-.2zM171 240c0 .5.5 1 1 1 .6 0 1-.5 1-1 0-.6-.4-1-1-1-.5 0-1 .4-1 1zM140.1 243.4c-.8.9-.9 1.6-.3 1.6.6 0 1.9.3 2.9.6 1.1.4 1.4.3.7-.3-.6-.4-1.3-1.4-1.5-2.2-.4-1-.7-1-1.8.3zM162.5 250c-.3.5.1 1 .9 1s1.8-.5 2.1-1c.3-.6-.1-1-.9-1s-1.8.4-2.1 1zM136.7 260.4c-.5 1.2.1 1.6 2.4 1.6 2 0 2.9-.4 2.7-1.3-.7-1.8-4.5-2-5.1-.3zM158 261.9c-.8.6-1.8.7-2.2.5-.4-.3-.8 0-.8.5 0 1.6 3.6 1.3 5-.4 1.4-1.7.3-2-2-.6zM157 267.5c-.7 1.8-.7 3.2-.1 3.8.5.5 1.2-.3 1.6-2.3.9-4.1-.1-5.1-1.5-1.5zM115.9 267.7c-1.3 1.6-1.2 1.7.4.4.9-.7 1.7-1.5 1.7-1.7 0-.8-.8-.3-2.1 1.3zM150.2 276.2c-.7.7-1.2 1.8-1.2 2.5s-.4 1.3-1 1.3c-.5 0-1 .4-1 .9s.9.7 2 .4c1.1-.3 2-1.1 2-1.8 0-.8.7-1.5 1.7-1.7 1.4-.3 1.4-.5.1-1.5-1.1-1-1.7-1-2.6-.1zM135.7 285.6c.4 1 1.3 1.4 2.7 1 1.1-.3 2.5-.6 2.9-.6.5 0 .5-.5.2-1-.3-.6-1.9-1-3.5-1-2.3 0-2.8.4-2.3 1.6zM142 289.4c0 .9.7 1.6 1.6 1.6 1.7 0 1.4-2.2-.4-2.8-.7-.2-1.2.3-1.2 1.2zM149.6 289c-1.9.6-1.9.7-.1 1.3 2 .8 2.9.4 2.4-1.1-.2-.5-1.3-.6-2.3-.2zM163 290.4c0 .2.7.7 1.6 1 .8.3 1.2.2.9-.4-.6-1-2.5-1.4-2.5-.6zM160 293.1c0 .5.5.7 1 .4.6-.3 1-.8 1-1.1 0-.2-.4-.4-1-.4-.5 0-1 .5-1 1.1zM139.4 294.8c-.5.4-1 1.9-1.1 3.4-.1 2 .3 2.8 1.5 2.8.9 0 2.8.3 4.1.7 2.1.5 2.3.3 1.7-1.2-.4-1.1 0-2.5 1-3.6 1.4-1.5 1.4-1.9.3-2-.8 0-2.6-.2-4-.4s-3 0-3.5.3zM151.5 295c.3.5 1.1 1 1.6 1 .6 0 .7-.5.4-1-.3-.6-1.1-1-1.6-1-.6 0-.7.4-.4 1zM129.5 296c-.3.5.3 1 1.4 1 1.2 0 2.1-.5 2.1-1 0-.6-.6-1-1.4-1-.8 0-1.8.4-2.1 1zM119.5 299c-.3.6.1.7.9.4 1.8-.7 2.1-1.4.7-1.4-.6 0-1.3.4-1.6 1zM146.4 303.6c-.4 1.6-1.2 2.3-2 2-.8-.3-1.4-.2-1.4.3s1.2 1.1 2.6 1.4c2 .3 2.7-.1 3.5-2 .5-1.4.7-2.9.3-3.4-1-1.7-2.4-.9-3 1.7zM121 306.1c0 .7-.9.9-2.3.6-1.2-.4-2.9-.2-3.7.3-1.2.8-1.2 1-.1 1 .7 0 1.1.6.8 1.4-.4 1 .2 1.6 1.6 1.8 1.9.3 2.1.8 1.9 3.8-.3 2.7-.1 3.2.8 2.3.7-.6 1.8-1 2.4-.9.6.2.8.1.3-.1-.4-.3-.5-.9-.1-1.4.3-.5-.3-.9-1.2-.9-1.4 0-1.5-.3-.6-1.2.7-.7 1.2-2.1 1.2-3.3 0-1.2.5-2.6 1.2-3.3.9-.9.8-1.2-.5-1.2-.9 0-1.7.5-1.7 1.1zM155 308.5c-.8 1.4-2 2.3-2.7 2.1-.7-.3-1.5 0-1.9.6-.5.8.2.9 2.4.5 1.7-.4 3.4-.2 3.7.3.7 1.2 7.5 1 7.5-.2 0-.4-.4-.8-.8-.8-.5 0-1.5-1.1-2.2-2.5-1.7-3.2-4.3-3.2-6 0zM125 310.3c0 1 .8 1.7 1.8 1.7.9 0 1.3-.4.7-.8-.5-.4-1.3-1.1-1.7-1.6-.5-.5-.8-.2-.8.7zM132.5 314c.3.5.8 1 1.1 1 .2 0 .4-.5.4-1 0-.6-.5-1-1.1-1-.5 0-.7.4-.4 1zM135.6 318.9c-1 1.5.3 5.3 1.7 4.8 1.7-.5 1.8-2.1.4-4.1-1-1.3-1.6-1.6-2.1-.7zM118.6 325c-.7.8-2 2.7-2.9 4.2-1.4 2.3-1.5 2.7-.1 3.2.8.3 1.2 1 .9 1.6-.4.6-1 .8-1.5.5-1.6-1-2 1.2-.5 2.5 1.2 1 1.8.8 3.5-1.1 1-1.3 1.9-2 2-1.4 0 .9 5 1.8 5 .9 0-.3-1.1-1.7-2.5-3.2-3-3.2-3.1-4-.5-6.7 1.9-2.1 1.9-2.1-.1-2.1-1.1 0-2.6.7-3.3 1.6zM44.2 331.9c-1.1.6-.9.9.6 1.3s1.9.2 1.5-.8c-.6-1.6-.4-1.6-2.1-.5zM130.3 335c-.7 1-.9 2.2-.4 2.4.5.3 1.1-.1 1.5-.9.3-.9 1.2-1.2 2.3-.8 1.6.6 1.6.5.4-1-1.7-2.2-2.3-2.1-3.8.3zM127.6 338.3c.3 1 .9 1.5 1.2 1.2.3-.3 0-1.1-.7-1.8-1-.9-1.1-.8-.5.6zM137.6 337.7c-.8.8-1.3.9-4.1 1.2-2.2.2-1.8 3.1.4 3.1 1.1 0 2.3.9 2.6 2 .3 1.1 1.1 2 1.6 2 1.3 0 1.1-.9-.6-2.7-1.4-1.4-1.4-1.7.1-3.4 1.6-1.8 1.6-3.8 0-2.2zM41.7 341.8c-3.1 3.2-3.4 4.7-1.2 5.6 2.5.9 4.2-.4 4.9-3.7.9-4.4-.6-5.2-3.7-1.9zM116.3 344.2c-1.3.6-2.3 1.5-2.3 2s1.1.1 2.5-.8c3.7-2.4 3.5-3-.2-1.2zM90 345.6c0 .8.4 1.3.9 1 .5-.4 1.2 0 1.4.6.3.7.6.3.6-1 .1-1.3-.5-2.2-1.4-2.2-.8 0-1.5.7-1.5 1.6zM91.2 353c-1.1 2.7 0 5 2.4 5 2 0 2.8-2.1 1.3-3.1-1.2-.8-1.2-1.1.1-2 1.3-.9 1.3-1-.2-.6-.9.3-1.9.1-2.1-.6-.3-.7-.9-.1-1.5 1.3zM97.2 352.4c.1 1 .8 1.7 1.3 1.7 1.5-.1 1.2-2.4-.3-2.9-.9-.3-1.3.2-1 1.2zM71 359.5c0 .8.2 1.5.4 1.5s.6-.7 1-1.5c.3-.8.1-1.5-.4-1.5-.6 0-1 .7-1 1.5zM87.2 360.1c.5 1.5 5.5 2.1 6.4.8.3-.5-.4-.9-1.5-.9-1 0-2.7-.3-3.7-.7-1.2-.4-1.5-.2-1.2.8zM76 362.5c-1 1.2-.9 1.5.4 1.5 1 0 1.4.4 1.1 1-.3.5.1 1 .9 1 1.7 0 2-.9 1-3.4-.8-2-1.8-2-3.4-.1zM97 363.3c0 2 2.9 4.2 4 3.1.5-.5-.2-1.6-1.6-2.7-1.9-1.4-2.4-1.5-2.4-.4zM36.5 367c-.3.4-1.6.5-3 .3-1.7-.4-2.7 0-3.1 1.1-.3.9-1 1.3-1.5 1-.5-.3-.9 0-.9.5 0 .6.4 1.1.9 1.1s1.8 1.6 3 3.6c1.3 2.2 2.7 3.4 3.9 3.2.9-.1 2.3.1 3 .6 1 .6 1.1.1.6-1.9-.6-2.4-.4-2.6 1.3-2.1 1.2.4 2.7-.1 3.9-1.3 1.1-1 3.1-2.2 4.4-2.6 2-.6 2.2-.5 1.6 1.8-.6 2.7 1.4 4.3 3.2 2.5 1.3-1.3 4.7-.6 4.8 1 .1.6.2 1.6.3 2 .2 1.3 4.1 1.2 4.1-.1 0-.7-1.2-2.3-2.6-3.7-1.4-1.3-3-3.4-3.5-4.7-.7-1.9-1.3-2.1-5.1-1.7-2.3.3-4.5.7-4.9 1-.4.2-1.3-.1-2.1-.8-1.4-1.4-7.6-2-8.3-.8zM86.6 367.5c-.3.8-1.7 1.5-3.2 1.5-2.5 0-3 2-.8 2.7 1.3.4 6.4-3.4 6.4-4.8 0-1.5-1.7-1-2.4.6zM98.3 370.6c-.7 1.9.3 3.1 4.3 5 2 1 3.7 2.6 4 4.1.4 1.3.9 2.1 1.2 1.8 1-.9 1-5.9 0-9.2-.8-2.9-1.3-3.2-4.9-3.1-2.4 0-4.3.6-4.6 1.4zM121.3 370.3c.4 1 0 1.8-1.1 2.1-.9.2-.6.4.8.3 2.7-.2 3.5-2.7 1.1-3.5-1-.3-1.2 0-.8 1.1zM128.7 371.7c-.8 1.2 3 2.9 4 1.9.4-.3-.1-.6-.9-.6-.9 0-1.8-.5-2-1.2-.3-.9-.6-.9-1.1-.1zM3 372.9c0 .5.7 1.5 1.7 2.2 1.5 1.3 1.5 1.2.4-.9-1.2-2.3-2.1-2.8-2.1-1.3zM92.5 374c-.3.5-.1 1.9.5 3 1 1.8.8 2-2 2-2.4 0-4.1 1-7.3 4.5-2.4 2.5-5 4.5-5.9 4.5-3.3 0-3.1 3.4.4 6.3 1.8 1.5 3.4 2.3 3.6 1.7.2-.5 1.4-1 2.7-1 2.9 0 7.5-2 7.5-3.2 0-.5.5-.6 1-.3.6.4 1 1.4.9 2.3-.5 5.8-.2 6.2 5.4 6.2l5.2-.1-2.5-2.2c-1.4-1.2-2.4-3-2.2-4 .4-1.9-1.4-2.4-2.1-.5-.3.7-.6.4-.6-.6-.1-1.1-.4-1.7-.7-1.3-.4.3-1.3 0-2-.8-2.3-2.3-1.6-2.7 1.6-.8 2.7 1.6 3.2 1.6 4.1.3.5-.8.7-2.5.4-3.8-.3-1.2-.1-2.2.5-2.2.5 0 1-.7 1-1.5 0-1.7-1.7-2-2.2-.4-.2.6-1.2.1-2.2-1-1.9-2.1-1.9-2.1.1-2.1 1.1 0 2-.7 2-1.5s-.4-1.2-.9-.9c-.4.3-.8 0-.8-.5 0-.6-.7-1.1-1.5-1.1s-1.5-.5-1.5-1c0-1.3-1.7-1.3-2.5 0zM112.5 377.6c0 1.3.3 2.4.8 2.4.4 0 .7-.9.7-1.9 0-1.1-.3-2.2-.7-2.4-.5-.3-.8.6-.8 1.9zM70.3 377.8c-.7.4-.9 1.3-.5 1.9.5.8 1.3.9 2.2.3 1-.6 1.1-1.3.5-1.9-.6-.6-1.6-.7-2.2-.3zM1.1 385.6c0 1.1.3 1.4.6.6.3-.7.2-1.6-.1-1.9-.3-.4-.6.2-.5 1.3zM69.5 385c-.3.5-.1 1 .4 1 .6 0 1.1-.5 1.1-1 0-.6-.2-1-.4-1-.3 0-.8.4-1.1 1zM.1 390.6c0 1.1.3 1.4.6.6.3-.7.2-1.6-.1-1.9-.3-.4-.6.2-.5 1.3zM26.8 396.2c-.3.7-3.1 1.8-6.4 2.4-5.7 1.1-5.5 1.2 7.1 1.3h13l-5-2.4c-5.6-2.8-8.1-3.1-8.7-1.3zM69.8 396.7c-2 .5-2.3 1.8-.8 2.8.6.3 1.7 0 2.5-.9 2.5-2.4 2.1-2.9-1.7-1.9z"/><path d="M91 397c0 .5.5 1 1 1 .6 0 1-.5 1-1 0-.6-.4-1-1-1-.5 0-1 .4-1 1zM77 399.1c0 .5.5.7 1 .4.6-.3 1-.8 1-1.1 0-.2-.4-.4-1-.4-.5 0-1 .5-1 1.1z"/></svg>